<svg xmlns="http://www.w3.org/2000/svg" viewBox="0 0 668.78 25.93"><defs><style>.cls-1{fill:none;}.cls-1,.cls-2{stroke:#000;stroke-miterlimit:24;stroke-width:0.5px;}.cls-2{fill:#fff;}</style></defs><title>Asset 1</title><g id="Layer_2" data-name="Layer 2"><g id="Layer_1-2" data-name="Layer 1"><path class="cls-1" d="M383.54,13.31a46.75,46.75,0,0,1,13.82-.47,62.47,62.47,0,0,0,13.12,0c-2.48.65-6.34-1.72-10.94,0-5,1.85-10.32,1.87-15.71.89"/><path class="cls-1" d="M349.05,1.17c-8.41-2.34-14.29-.82-15.22,11.67-.16,2.17-.23-3.62.18,0-1.81-2.18-3.14,2.2-4.12,0-11.55-26.1,21.86,3.77,25.47,0-12.14-13.54-31.16,31.92-29.21,0,.17-2.84.5,2.69,1,0,0,2.46.1-5.35,1.21,0,2.21,10.68,7.48,13.47,14.71,12.73"/><path class="cls-1" d="M286.67,13.31a46.75,46.75,0,0,0-13.82-.47,62.48,62.48,0,0,1-13.12,0c2.48.65,6.34-1.72,10.94,0,5,1.85,10.32,1.87,15.71.89"/><path class="cls-1" d="M321.16,1.17c8.41-2.34,14.29-.82,15.22,11.67.16,2.17.23-3.62-.18,0,1.81-2.18,3.14,2.2,4.12,0,11.55-26.1-21.86,3.77-25.46,0C327-.7,346,44.76,344.07,12.84c-.18-2.84-.51,2.69-1,0,0,2.46-.1-5.35-1.21,0-2.21,10.68-7.48,13.47-14.71,12.73"/><circle class="cls-2" cx="370.75" cy="12.96" r="2.51"/><circle class="cls-2" cx="301.97" cy="12.96" r="2.51"/><line class="cls-1" x1="241.28" y1="12.96" y2="12.96"/><line class="cls-1" x1="668.78" y1="12.96" x2="427.5" y2="12.96"/></g></g></svg>