<svg xmlns="http://www.w3.org/2000/svg" viewBox="0 0 225.07 257.5"><defs><style>.cls-1,.cls-2,.cls-3,.cls-4,.cls-5,.cls-6{isolation:isolate;fill:none;stroke:#000;stroke-width:0.5px;font-family:ShreeDev0714, "Shree Devanagari 714";}.cls-1{font-size:59.52px;}.cls-1,.cls-3,.cls-4,.cls-6{stroke-miterlimit:10;}.cls-2{font-size:59.52px;stroke-miterlimit:10;}.cls-3{font-size:59.52px;}.cls-4{font-size:59.36px;}.cls-5{font-size:59.67px;stroke-miterlimit:10.02;}.cls-6{font-size:59.44px;}.cls-7{fill:#202020;}</style></defs><g id="Layer_2" data-name="Layer 2"><g id="Layer_1-2" data-name="Layer 1"><g id="Layer_1-2-2" data-name="Layer 1-2"><text class="cls-1" transform="translate(41.24 59.06) rotate(-11.96)">R</text><text class="cls-2" transform="matrix(0.99, 0.14, -0.14, 0.99, 76.9, 51.55)">e</text><text class="cls-3" transform="translate(106.9 55.24) rotate(27.3)">g</text><text class="cls-3" transform="translate(135.5 68.92) rotate(48.09)">R</text><text class="cls-3" transform="translate(159.91 95.77) rotate(69.08)">o</text><text class="cls-4" transform="matrix(0.12, 1, -0.99, 0.12, 170.7, 126.6)">t</text><text class="cls-3" transform="translate(173.37 138.24) rotate(95.76)">a</text><text class="cls-5" transform="translate(169.65 167.56) rotate(108.62)">t</text><text class="cls-6" transform="matrix(-0.54, 0.85, -0.84, -0.54, 167.36, 179.28)">o</text><text class="cls-3" transform="matrix(-0.74, 0.67, -0.67, -0.74, 149.31, 206.25)">r</text><path class="cls-7" d="M157.22,142.67c0,.73.17.47.2.57C157.38,142,157.22,142.74,157.22,142.67Z"/><polygon class="cls-7" points="155.88 130.71 155.98 130.91 155.5 129.19 155.88 130.71"/><path class="cls-7" d="M153.31,119.77c0,1.11,1.22,3.89,1.52,5.88V126l.43.81c-.31-1.19-.63-2.55-1-3.8S153.52,120.6,153.31,119.77Z"/><path class="cls-7" d="M151.87,113.9c0,.39-.57-1.17.48,1.33l-.07-.25Z"/><path class="cls-7" d="M150.08,109.93l.73,1.39c-.07-.32-.63-1.62-.37-1.16C149.72,108.72,149.8,109.05,150.08,109.93Z"/><path class="cls-7" d="M149.26,108.68c.14.24.26.47.39.71A1.9,1.9,0,0,0,149.26,108.68Z"/><path class="cls-7" d="M150.44,110.92l-.81-1.53a1,1,0,0,0,.36.71C149.87,110,150.08,110.3,150.44,110.92Z"/><path class="cls-7" d="M150.8,111.83c.31.81.69,1.89,0,.48a8.36,8.36,0,0,0,.87,1.83A11.09,11.09,0,0,0,150.8,111.83Z"/><path class="cls-7" d="M152.84,119.32c.1.37.2.75.28,1.14l.36.94c-.09-.24-.22-.81-.35-1.26A2.18,2.18,0,0,0,152.84,119.32Z"/><path class="cls-7" d="M145.53,101.27c-.1,0,.15.53.15.67.24.31.45.63.66,1C146.09,102.35,145.5,101.38,145.53,101.27Z"/><path class="cls-7" d="M145.68,101.94l-1-1.37C145.48,101.84,145.67,102.06,145.68,101.94Z"/><path class="cls-7" d="M148.84,108.58c.51.81.93,1.62,1.4,2.43-.54-1-1.05-2-1.62-3Z"/><path class="cls-7" d="M141.81,95.78l.69.72c-.39-.45-.81-.87-1.22-1.28Z"/><path class="cls-7" d="M139,92.36c.57.47-.5-.89.06-.35a31.28,31.28,0,0,0-2.23-2.23A23.32,23.32,0,0,1,139,92.36Z"/><path class="cls-7" d="M135.71,88.76c.35.33.73.66,1.16,1A14.1,14.1,0,0,0,135.71,88.76Z"/><path class="cls-7" d="M143,98.07a5,5,0,0,0-.65-1.21l.26.65Z"/><path class="cls-7" d="M142.62,97.54h0l-.81-1.23Z"/><path class="cls-7" d="M143.13,98.21l-.09-.14A.23.23,0,0,0,143.13,98.21Z"/><path class="cls-7" d="M146.86,104.5c-.6-.81-1.73-2.6-.81-.76C146.48,104.31,146,103.26,146.86,104.5Z"/><path class="cls-7" d="M143.43,99c.35.51.65,1,1,1.56,0-.06-.11-.37.21,0C144.25,100.08,143.86,99.54,143.43,99Z"/><polygon class="cls-7" points="142.88 98.33 143.45 99.02 143.06 98.46 142.88 98.33"/><path class="cls-7" d="M137.76,91.19c-.58-.55-1.15-1.2-1.85-1.89L138,91.68C138.08,91.76,138.46,92,137.76,91.19Z"/><path class="cls-7" d="M140.19,94.22l-.11-.13C140.13,94.18,140.19,94.25,140.19,94.22Z"/><path class="cls-7" d="M128.84,82.66l.09.13h0Z"/><path class="cls-7" d="M138,91.84a9.22,9.22,0,0,0,1.17,1.25c-.4-.43-.81-.9-1.26-1.41C137.89,91.65,137.87,91.65,138,91.84Z"/><path class="cls-7" d="M133.76,86.88c.28.31.58.65.9,1A5.89,5.89,0,0,0,133.76,86.88Z"/><path class="cls-7" d="M139.94,93.85l.08.09C139.89,93.71,139.89,93.75,139.94,93.85Z"/><path class="cls-7" d="M139.94,93.85c-.27-.3-.5-.53-.73-.76.31.37.6.71.86,1C140,94,140,93.93,139.94,93.85Z"/><path class="cls-7" d="M125.88,81.72a10.15,10.15,0,0,1,3.15,2.4c1.4,1,.89-.09-.08-1.33-.1,0-.11,0-1.62-1,.47.42,2.93,2.73,1.69,1.85-.92-.77-1.3-1.07-1.55-1.3a10,10,0,0,0-.81-.81c.66.75-2.58-1.62-2.35-1.06.59.36,1.15.81,1.72,1.18C126.09,81.74,125.46,81.33,125.88,81.72Z"/><path class="cls-7" d="M131.55,85.07l.55.51-1.78-1.89c-1-.76-1.22-.89-1.33-.9.92.82,1.87,1.63,2.76,2.44Z"/><path class="cls-7" d="M134.51,87.91c-.51-.31-1.88-1.47-1.2-.59a25.21,25.21,0,0,0,2.13,1.87c-2.43-2.52.81.67-.92-1.25.5.48.94.93,1.36,1.36l-1.21-1.39.05.07h0c.09.12.11.17,0,0l-.05-.06a.44.44,0,0,1-.16-.06c-.69-.82-.08-.16.16.06h.05c-.81-.81-1.75-1.62-2.61-2.43C132.62,86.12,133.33,86.74,134.51,87.91Z"/><path class="cls-7" d="M144.73,102.33v-.12C144.57,102,144.5,102,144.73,102.33Z"/><path class="cls-7" d="M144,101.06a6.59,6.59,0,0,1,.77,1c.34.63-.07,0-.1.1.31.4,1,1.43.27.05l-.15-.2a18.34,18.34,0,0,1-1.36-2.69A8.41,8.41,0,0,0,144,101.06Z"/><path class="cls-7" d="M139.53,94.2c-.61-.81-1.29-1.47-1.95-2.19l.86,1.22v-.11C139.5,94.42,139.38,94.08,139.53,94.2Z"/><path class="cls-7" d="M128.65,82.37l.41.12c-.47-.31-1-.58-1.49-.87Z"/><path class="cls-7" d="M125.59,80h.21c-.29-.19-.59-.35-.88-.52Z"/><path class="cls-7" d="M12.22,182.43l.46.71C12.47,182.8,12.33,182.58,12.22,182.43Z"/><path class="cls-7" d="M9.32,177l-.15-.1C9.34,177.17,9.42,177.26,9.32,177Z"/><path class="cls-7" d="M36.9,76.16c-1.14.55-2.43,1.13-2.24,1.19l.43,0A21.17,21.17,0,0,1,36.9,76.16Z"/><path class="cls-7" d="M2.08,127.93l.12-.35v-.86C2.18,127.09,2.11,127.49,2.08,127.93Z"/><path class="cls-7" d="M2.64,129l-.39,1.63C2.33,130.16,2.47,129.65,2.64,129Z"/><path class="cls-7" d="M35,206.53l.91.41C34.66,206.08,35.17,206.52,35,206.53Z"/><path class="cls-7" d="M89.63,65.21c-1.07-.2-1.93-.34-2.69-.44A10.65,10.65,0,0,0,89.63,65.21Z"/><path class="cls-7" d="M9.38,181.25c.29.44.44.62.47.59C9.55,181.37,9.37,181.12,9.38,181.25Z"/><path class="cls-7" d="M83.8,64.5l.57.09a24.56,24.56,0,0,1,2.57.18A13.79,13.79,0,0,0,83.8,64.5Z"/><path class="cls-7" d="M142.14,186.24l.17-.22A1,1,0,0,0,142.14,186.24Z"/><path class="cls-7" d="M156.34,153.73l-.17,1.48C156.21,154.91,156.26,154.49,156.34,153.73Z"/><path class="cls-7" d="M115.65,74.37c-.16-.06-.29-.1-.32-.07A.88.88,0,0,1,115.65,74.37Z"/><path class="cls-7" d="M75.73,65.46h-.08C75.9,65.49,75.85,65.49,75.73,65.46Z"/><path class="cls-7" d="M113.51,72.58c-.27-.16-.57-.34-.91-.51Z"/><path class="cls-7" d="M113.43,72.43l.63.34C114.13,72.8,114.06,72.74,113.43,72.43Z"/><path class="cls-7" d="M111.41,71.51c.42.18.82.37,1.19.56-.14-.09-.19-.12-.15-.11Z"/><path class="cls-7" d="M88.56,219.9h.17C89.51,219.73,89.17,219.78,88.56,219.9Z"/><path class="cls-7" d="M21.93,90.84l.06-.07-.09.08Z"/><path class="cls-7" d="M20.17,93.06a8.47,8.47,0,0,1,1.73-2.22l-1,.35Z"/><path class="cls-7" d="M20.91,194.23l-1.2-1.62c1.77,1.66,2.86,3,1.79,1.46-.29.06-1.62-1.35-2.82-2.87-.6-.75-1.21-1.51-1.71-2.07s-.81-1-1-.94l-.7-1.14c.22.32.29.34.5.65-1.28-2.23-1.43-1.33-3.17-4.16-.56-1-.87-1.76-.43-1.11l-1.41-2.16c-.34-.65-.18-.54.18.11-.65-1.13-1.23-2.31-1.85-3.46h0c-.34-.45-.95-1.56-1.27-2.11-.34-.94.26.44.22.17-.33-.64-.7-1.28-1-1.93-.09-.44.05-.25.3.22s.64,1.21,1,1.91a5.3,5.3,0,0,0-.74-2.08,19.7,19.7,0,0,1-1.43-3.69c.24.64.53,1.25.81,1.88a17.93,17.93,0,0,0-.58-2.18c-.23-.81-.53-1.74-.81-2.86.08.54,1,4.53.14,2.35a21.1,21.1,0,0,0-1-2.66c.19-.06-.19-1.24-.63-2.73H4.4a21.71,21.71,0,0,0-.92-2.38,5.3,5.3,0,0,1-.19-2.71c-.48-3,0,2.1-.62-1.38-.09-.62-.18-1.19-.28-1.74l-.23-1.62c-.17-1.1-.42-2.27-.59-3.75,0-1.75.19.29.21-.34l-.32-1.53c0-.38.05-.26.09-.2-.16-1.3-.28-.09-.41-2.14a9,9,0,0,1,0-2.64,24.78,24.78,0,0,0,.17-4.13c.13-.62.14.31.26.13.05-3.49,0-3,.12-5.87.16-.81.31-1.62.53-2.39-.51,1.74-.34-.55-.16-2.59-.21.62-.39,1.14-.49,1.49.14-1.07.28-2.14.5-3.24.13-.37.14,0,.13.5l.07-.59c.35-1.1.37-.48.32.36l-.42,1.09c0,.81.06,1.58.24,1.45a10.12,10.12,0,0,1,.11-1.05c0,.21,0,.35.07.26,0-.32.07-.65.09-1l.44-.65-.06-.2c.36-1.34.73-2.69,1.19-4l.38-2.19.5-2.27a24.85,24.85,0,0,1,.71-2.56c.32-.92.62-1.94,1.09-3-.3,1.16.21.36.41.52a10.28,10.28,0,0,0-1,2.44c-.16.51-.36,1-.53,1.62s-.35,1.15-.56,1.73c.44-1.21.46-.91.39-.58.37-1.42.88-2.8,1.33-4.19.15.17.47-.81,1-1.82-.37.31-.09-.46.36-1.52s1.16-2.38,1.49-3.25c.17,0,.1.41-.93,2.34,1.39-2,1-3,2.4-4.93a3.57,3.57,0,0,0-.47.91c.26-.56.81-1.5,1.21-2.21s.81-1.15.68-.81l-.29.44,1.74-2.66c.66-1,1.38-2,2-3a29,29,0,0,0,2.55-3.77,1.89,1.89,0,0,1-.06.82c1.06-1.86,2.14-3.73,3.36-5.52-.17.61,1.81-.44-.09,1.79.63-.56,1.33-1.32,2.54-2.62-.45.36-1.33.69-.81.12C25.5,87,24.88,87.25,27,85.67c-.7.52-.29-.45.76-1.33-.11.19.39.27,0,.63.75-.86,1.51-1.71,2.32-2.52-.62.59.12.39.81,0a6.17,6.17,0,0,1,1.12-.92c.71-.53,1.58-1.11,1.93-1.4l-1.22.75c3.14-2.16,2.72-2.71,6-4.7-.36.31-.69,1.06,1,.15a23.63,23.63,0,0,1,5.91-4.52l.65-.15c.81-.41,1.55-.81,2.34-1.18-.7.44-2,1.36-3.38,2.27s-2.8,2-3.83,2.66a13.06,13.06,0,0,0,2.33-1c.73-.24-.95.69-1.51,1,1.5-.73,3-1.48,4.5-2.1-.16-.08.68-.53,1.52-1s1.74-.81,1.62-.88c-1.66.71-3.24,1.62-4.86,2.43-.16-.08.47-.57,1.55-1.23a18,18,0,0,1,1.93-1c.78-.26,1.59-.6,2.41-.92s-.46.7-.35.75a13.49,13.49,0,0,1,1.72-.81c.81-.28,1.54-.54,1.7-.56l-1.37.61a18,18,0,0,0,2.43-1,13.78,13.78,0,0,1,2.82-.81c.81-.22,2.44-.27,2.55-.45-1.36,0-1.87-.87-1.05-1.3l2.38-.37a26.45,26.45,0,0,1,2.95-.23c1.38,0-1.89.93-.72.93a4.91,4.91,0,0,1,1-.39c.81-.09-.31.3,1.52-.07.27-.32,3.77-.45.81-.34.9-.15,1.39-.2,1.91-.25l2.15-.17c-.69-.11,1.88-.81,3.73-.93-.11.07.31.15.52.19h2.54c.77,0,1.49.07,2.2.1s1.4.06,2.14.11l2.43.2c.32.09,2,.31,1.27.37a15.49,15.49,0,0,1,2,.1c2,.51-2.43-.26-.81.22a25,25,0,0,1,4.32.31,6.32,6.32,0,0,0-2.1-.45c-1-.1-2.18-.17-3-.22,0-.17.7-.26,1.84-.27.58,0,1.27,0,2,.07s1.62.17,2.54.3c1.46.2,1.75.38,1.76.43s-.3,0,0,.09c1.33.32,2.3.51,3.06.64s1.31.25,1.84.33A15.69,15.69,0,0,1,104,69c1.62.81-.07.44.26.72-1.15-.34-2-.68-2.76-1S100,68.23,99.26,68l1.89.64A25.84,25.84,0,0,1,98,67.84c.35.15,1.08.38,2,.67l1.62.48,1.81.62c.62.22,1.27.42,1.92.66l1.9.77c1.14.45,2.26,1,3.35,1.52.71.24,1.93.71,1.4.38l-1.23-.53c-1.06-.67,2.43.82.89,0,.86.3,1.73.71,2.69,1.13.48.22,1,.45,1.49.71s1,.59,1.57.93l.29.45a9.76,9.76,0,0,0-2-1.24c1,.44,3.25,2.18,4.36,2.57-.47-.36-.93-.74-1.43-1.08.81.39,1.71.89,2.66,1.4a18.49,18.49,0,0,1,2.81,1.82c-.71-.81-.44-.29-1.62-1.45,1,1-4.87-3.14-3.2-1.62a13.31,13.31,0,0,0-1.89-1.36c-.66-.41-1.38-.87-2.29-1.47,0,.1.62.49-1.06-.42a2,2,0,0,1-.4-.12l-.12-.07.09.06h0a5.07,5.07,0,0,1,.81.56c-.47-.13-1.36-.56-2.28-1a22.09,22.09,0,0,0-2.34-.94c-1-.5.47.11-.06-.23-.48-.17-1-.32-1.46-.46-.07-.22-2.68-1.38-.16-.5L106,69.24a28.6,28.6,0,0,0-4.3-1.54c-1.07-.35-2.8-.58-1.81-.45L98,66.79l-1.85-.36v-.05c-1.79-.47-3.69-.68-5.67-1s-4-.52-6.09-.82l-2-.08c-.74,0-1.62,0-2.63-.08l-.4-.17h-3.1a12.34,12.34,0,0,0-2.43.13,12.27,12.27,0,0,0-2,0l-1.38.08c-.49,0-1,.12-1.52.2-1,.14-2.11.26-3.08.46s-1.87.36-2.58.46l-.06.22c-1,.14-1.88.41-2.86.65l-1.52.4c-.52.15-1.07.33-1.62.52l.18.13c-1,.36-2.27.65-3.68,1.11l-2.22.68c-.76.26-1.53.55-2.29.86a7.79,7.79,0,0,1,1.53-.62c-3.86,1-7.48,3.53-10.72,5a13.19,13.19,0,0,1-1.86,1.07l.18-.11-.31.18c-.36.16-.72.34-1.11.55l.94-.46c-.59.35-1.45.94-2.27,1.53l-.47.07-.21.13c-.87.48-.61.51-.09.34a10.66,10.66,0,0,0-1,.86c-.81.23-2.14,1.62-3.18,2-.22.28-1.21,1.09-2.16,1.91a10.51,10.51,0,0,0-1.9,2c-.05,0-.29.16.12-.2a17.64,17.64,0,0,0-2.43,2.22l-.52.16-.81,1-.73,1c-1.13,1-1.62,1.37-.74.16l-1.26,1.58-.72.92a21.71,21.71,0,0,0-1.63,2.24v-.22a28.18,28.18,0,0,1-2.08,2.8,28.52,28.52,0,0,0-1.86,2.37c-.82,1.07-1.63,2.44-2.62,3.94-1.8,3-3.65,6.52-5,9.36.47-.46.11.18-.31,1s-.87,1.82-.74,2c-.25.3-.62,1.09-.34.11-.56,1.5-.93,2.65-1.32,3.67a13.92,13.92,0,0,0-.81,3c-.21.33,0-.7-.12-.41a6.47,6.47,0,0,1-.34,1.31c-.15.3,0-.47.13-1-.22.81-.37,1.41-.47,1.91a8.32,8.32,0,0,0-.1,1.12,1.09,1.09,0,0,0,.28.87,14.6,14.6,0,0,0-.55,1.93,11.83,11.83,0,0,0-.12,1.67c-.21.56-.48,1.48-.17-.52L1,130.14l-.22,1.13-.16,1.2a12,12,0,0,0-.22,3.16,11.93,11.93,0,0,0-.13,1.89c-.12,1.27-.17,2-.18,2.66L0,142.81l.06-.7a26,26,0,0,1,.16,4.11v-.06a23,23,0,0,0,0,2.35,4.66,4.66,0,0,0,.1,1c0,.25,0,.5.09,1s.05,1.17.14,2.31l.16-.27a6.07,6.07,0,0,1,.37,2.5,28.86,28.86,0,0,0,.59,4.14l-.06-1A16.81,16.81,0,0,1,2,160.9a16.29,16.29,0,0,0,.29,2.78c.06.32-.2-.47-.33-.9.81,3.77.37.42,1.2,3.15,0,.55-.54-.55,0,1.3.11.47.65,1.77,1.27,3.25s1.36,3.13,1.81,4.37c-.14-.57-.28-1.13.34.05.81,1.84,2,5.14,3.2,6.57.11.25.13.34.11.37.43.64,1.06,1.74,1.74,2.71a26.62,26.62,0,0,0,1.62,2.21,5.55,5.55,0,0,0,1,1.86,27.42,27.42,0,0,0,2,2.57l1.92,2.27c.51.59.81,1,.68,1.11.53.59,1,1.2,1.62,1.78L22,198.06l-.14,0a23.15,23.15,0,0,0,2.44,2.31,15.12,15.12,0,0,0,1.51,1.12c.5.5.07.21,0,.19a38.39,38.39,0,0,0,3.47,3,32,32,0,0,0,3.39,2.23l.19.39A59.57,59.57,0,0,0,42.08,213a1.59,1.59,0,0,1-.47-.14c2.23,1,4.87,2.43,7.19,3.45S53.22,218,54.18,218c1,.31,2.11.51,3.16.76-4-1.2.68-.14-.93-.72a21.67,21.67,0,0,1,2.36.77c.57.2.69.32-.29.08l-.29-.12c-.81.24,5,1.36,4.86,1.54a82.07,82.07,0,0,0,24,1.23c-.3-.07-.61-.11-.91-.2.89-.08,1.78-.21,2.67-.31.72,0,1,.11-.94.34a10.05,10.05,0,0,0,3.25-.65c3.74-.55-1.4.6-.26.4l1.55-.29H92l1.41-.43c.46-.12,1-.26,2.18-.52,1.45-.28.81,0,1.34-.12a3.21,3.21,0,0,0,.87-.18c1.1-.29,2.2-.6,3.29-.9l-1.38.14c1.43-.51,3.08-.87,1.49-.68a37.66,37.66,0,0,0,7-2.26c1.42-.56,2.77-1.23,3.87-1.72s1.9-.95,2.23-1.08l1.37-.81,1.38-.81c1-.58,2-1.13,3.06-1.83-.57.3-1,.28.85-.89-.19.44.72,0,1.83-.77s2.53-1.67,3.33-2.1c-.71.4.53-.6,1.66-1.52s2.1-1.89,1-1.2c1.43-1.18.22.08,1.36-.75a92.29,92.29,0,0,0,10.47-11c0-.11-.66.54,0-.44.71-.68,1.34-1.41,2-2.13a10.8,10.8,0,0,1,1.54-2.54c-.2.2-.5.5-.13-.12a66.53,66.53,0,0,0,7.5-14.45,113.7,113.7,0,0,0,4.6-15.79c-.4,1.44-.24.46,0-.65-.17.72-.17-.05-.3.08.28-1.49.59-3,.82-4.48a13.88,13.88,0,0,1,.07-2.81,9.89,9.89,0,0,0,0-2.55v1.43c-.13-.95-.3-.29-.52.56s-.52,1.92-.7,1.76a11,11,0,0,1-.06,1.82c-.1.67-.26,1.4-.41,2.17a35.88,35.88,0,0,0-.74,5c-.22.74,0-.67-.17-.28a14.31,14.31,0,0,1-.71,3.84v-.23c-.28,1.35-.66,2.48-.95,3.54s-.65,2-1,3-.71,2-1.19,3-.94,2.3-1.62,3.69l.36-.34c-.57,1.2-.74,1.43-1,2-.37,1.51,1.56-3.4,1.27-2a15.08,15.08,0,0,0-1.08,2c-.43.89-1,1.9-1.5,2.92s-1.11,2-1.57,2.75a6.56,6.56,0,0,1-1.14,1.53c-1.12,1.72.51-.38-.6,1.34l-.39.39-.15.51c-.75,1.13-1.31,1.57-1.4,1.55.2-.25.51-.76.7-1.05-.56.66-1.25,1.67-1.86,2.56s-1.19,1.62-1.38,1.87c.42-.51.81-1,1.26-1.51a90.22,90.22,0,0,1-12,13.06l.36-.2a17.18,17.18,0,0,1-1.77,1.53c-.45.35-.81.6-1.15.86-.7.53-1.48,1-3.31,2.37l.12-.11a20.28,20.28,0,0,1-2.73,2c.91-.71-1.92,1-.72.08-1.85,1.25-2.34,1.51-2.62,1.75a11.42,11.42,0,0,1-1.63,1.23l-.68.18c-.41.3-.63.47-1,.7a15,15,0,0,1-1.9,1c1.62-.88-1.42.39.41-.61-1.12.41-2.06.81-2.9,1.2l-2.23,1a11,11,0,0,1-3.48,1.11c-1,.55,0,.28,1.12-.08s2.26-.85,1.71-.58c.5-.13.11.12-.58.45s-1.61.64-2.44.9a11.24,11.24,0,0,1-2.31.45c-.47.06-1,.15-1.62.28-.32.06-.67.15-1.05.24s-.81.17-1.28.28c.37-.08.38-.12.75-.2a16.28,16.28,0,0,0-2.09.49c-.36.1-.72.2-1.11.28s-.83.13-1.24.16c-.92.42-2.23.38-2.44.75l3.44-.69c-1,.21-1.9.5-3,.81a24.07,24.07,0,0,1-4.06.58c.26-.1,1.21-.3,1.87-.44-1,0-1.83.33-2.82.3a9.51,9.51,0,0,1,2.43-.47l2-.28a15,15,0,0,0,1.8-.43,18.84,18.84,0,0,0-2.21.4c-.73.13-1.21.19-.71-.05a9.65,9.65,0,0,1-2.72.53,22,22,0,0,0-3.54.38l.15-.21a14.89,14.89,0,0,1-2,.2l1.35-.29a57.36,57.36,0,0,1-6,0c2.09.06,2.33.11,2.26.18s-.43.19.45.24c-5.18.16-3-.47-8.72-.81.81.05,2.91.34,1.69.34a19.18,19.18,0,0,1-3.19-.55c-3.79-.43.56.27-1.07.19a20.45,20.45,0,0,0-3.55-.41V219c-1.07-.22-1.68-.33-2.05-.4a1.67,1.67,0,0,0-.63,0c-.26,0-.46.1-2.36-.42l1.69.11c-.67-.13-1.35-.25-2-.41a2,2,0,0,0,.47-.1c-1.09-.22-1.81-.39-2.5-.59a23.24,23.24,0,0,1-2.44-.81c.44.29-.38.25-2.22-.37-1.2-.56.75.11-1.82-.87a7.65,7.65,0,0,1,2.37.81c.14,0,.62.08.76.07-1.32-.55-3.33-1.28-4.25-1.63.35.16.81.33,1,.44l-1.85-.74-1.87-.7c-.54-.33-.06-.17.41,0-.74-.33-1.3-.43-2.36-1,.34,0,.33-.16,1.89.46-1.18-.45-2.31-1-3.46-1.51-.21-.17-1.63-1.07-1.17-.89-.89-.56-2-1.12-3.25-1.76a32.11,32.11,0,0,1-3.56-2.23,7.14,7.14,0,0,1-.89-.52l-1.53-1.16L31,203.63l-1.55-1.25c-.54-.45-1.1-.89-1.72-1.36-.38-.47-.81-.9-1.12-1.37-1.8-1.63,1.47,1.9-1.53-.82-2.13-1.91-.6-.9-1.25-1.67-.54-.46-1.29-1.08-2.11-1.86a22.36,22.36,0,0,1-2.43-2.81C19.94,193.09,20.36,193.63,20.91,194.23ZM5.73,168.69l.44,1.06a3.6,3.6,0,0,1,.34.95A4.39,4.39,0,0,1,5.73,168.69Zm-2.29-45a9.92,9.92,0,0,1-.47,1.8A14,14,0,0,1,3.44,123.68ZM104.13,68.74h-.07C102.83,68.23,103.27,68.41,104.13,68.74Zm2.55,1c.27.08.26,0,.16,0a9.26,9.26,0,0,1-1.42-.51A5.12,5.12,0,0,0,106.68,69.75ZM97.25,219.62l-.53.07C97.87,219.37,97.56,219.49,97.25,219.62Z"/><path class="cls-7" d="M2.58,128.8a.51.51,0,0,1-.15.23C2.42,129.26,2.46,129.27,2.58,128.8Z"/><path class="cls-7" d="M34.86,206.45l.07.06H35Z"/><path class="cls-7" d="M65.08,67.32a9.65,9.65,0,0,1-1.07.09C64,67.48,64.24,67.48,65.08,67.32Z"/><path class="cls-7" d="M119.92,75.93c-.5-.3-1-.57-1.54-.86a10.87,10.87,0,0,1,1.33.87C119.68,75.88,119.43,75.64,119.92,75.93Z"/><path class="cls-7" d="M131.27,86.1c.2.17.4.38.59.53v-.11C131.08,85.77,130.46,85.3,131.27,86.1Z"/><path class="cls-7" d="M120.92,77.37c0,.23,1,.72,2,1.43l-.18-.12C123.16,78.68,122.07,78,120.92,77.37Z"/><path class="cls-7" d="M123.16,79c.31.21.62.43.92.66C124.26,79.62,123.73,79.33,123.16,79Z"/><path class="cls-7" d="M110,71c.52.28.42,0,.7.16C111.33,71.21,106.94,69.75,110,71Z"/><polygon class="cls-7" points="121.46 78.36 121.21 77.94 120.53 77.72 121.46 78.36"/><path class="cls-7" d="M113.19,73.4l1.71.94s.22,0,.5.18C114.68,74.11,113.94,73.74,113.19,73.4Z"/><path class="cls-7" d="M115.4,74.52c.55.29,1.06.6,1.39.74C116.49,75.1,115.86,74.73,115.4,74.52Z"/><path class="cls-7" d="M119.18,77l-.46-.34-1.19-.69C118.08,76.24,118.65,76.59,119.18,77Z"/><path class="cls-7" d="M93.37,66.62l-2.11-.31c-.23,0,.34.18,1.12.29C92.9,66.64,93.68,66.75,93.37,66.62Z"/><path class="cls-7" d="M99.49,68.66a5.18,5.18,0,0,1-.86-.4l-.12.22Z"/><path class="cls-7" d="M93.48,67.27c-.23,0-3.06-.34-.42.12C93.28,67.32,95.38,67.7,93.48,67.27Z"/><polygon class="cls-7" points="61.74 67.28 62.27 67.16 62.1 66.77 61.74 67.28"/><path class="cls-7" d="M36.39,79c2.15-1.25.35-.54,2.33-1.62.43-.4-1.63.89-1.16.5C36.39,78.75,35.67,79.13,36.39,79Z"/><path class="cls-7" d="M37.58,77.86l.62-.47A6.25,6.25,0,0,0,37.58,77.86Z"/><path class="cls-7" d="M157.14,147.77c.08-.54.1-1.09.15-1.62l-.17,1C157.14,147.38,157.13,147.61,157.14,147.77Z"/><path class="cls-7" d="M156.94,144.61l.26-.38-.21-1A8.92,8.92,0,0,1,156.94,144.61Z"/><path class="cls-7" d="M4.89,164.26l-.1-.1a7.44,7.44,0,0,0,.3,1.34Z"/><polygon class="cls-7" points="13.49 184.02 13.3 183.69 13.48 184.41 13.49 184.02"/><path class="cls-7" d="M25.11,197.89c-.55-.51-1.18-1.1-1.68-1.63C24.56,197.4,25,198.24,25.11,197.89Z"/><path class="cls-7" d="M133.2,174.37c-.29.5,0,.4-.06.49C133.58,174,133.15,174.37,133.2,174.37Z"/><polygon class="cls-7" points="136.96 165.5 136.96 165.68 137.28 164.29 136.96 165.5"/><path class="cls-7" d="M139.54,156.92c-.48.75-.7,3.17-1.3,4.66l-.15.23v.76c.25-.94.57-2,.81-3S139.38,157.57,139.54,156.92Z"/><path class="cls-7" d="M141,152.3c-.16.28.06-1.05-.2,1.1l.06-.19Z"/><path class="cls-7" d="M141.35,148.83v1.27c.09-.26.22-1.37.23-1C141.63,147.85,141.53,148.12,141.35,148.83Z"/><path class="cls-7" d="M141.24,147.61v.65A1.43,1.43,0,0,0,141.24,147.61Z"/><path class="cls-7" d="M141.19,149.66l.05-1.38c-.07.18-.17.19,0,.63C141.13,148.79,141.19,149.07,141.19,149.66Z"/><path class="cls-7" d="M141.07,150.43c-.13.7-.31,1.62-.24.33C140.53,153.13,140.81,152.81,141.07,150.43Z"/><path class="cls-7" d="M139.38,156.41c-.08.29-.17.59-.28.88l-.1.81A10.87,10.87,0,0,0,139.38,156.41Z"/><path class="cls-7" d="M141.7,141c-.07-.07-.15.43-.22.53.05.31.06.62.09.93A10.16,10.16,0,0,1,141.7,141Z"/><path class="cls-7" d="M141.48,141.54l-.17-1.38C141.36,141.39,141.42,141.62,141.48,141.54Z"/><path class="cls-7" d="M140.93,147.39c.06.76,0,1.51,0,2.27,0-.9,0-1.8,0-2.71Z"/><path class="cls-7" d="M141.31,135.72l.22.77c-.11-.46-.24-.92-.38-1.37Z"/><path class="cls-7" d="M140.76,132.24c.23.56,0-.81.23-.23a20.39,20.39,0,0,0-.69-2.43A15.91,15.91,0,0,1,140.76,132.24Z"/><path class="cls-7" d="M139.87,128.42c.13.37.26.75.43,1.17A8.2,8.2,0,0,0,139.87,128.42Z"/><path class="cls-7" d="M141.18,137.81a2.91,2.91,0,0,0,.07-1.1l-.12.56Z"/><path class="cls-7" d="M141.13,137.28h0l-.13-1.19Z"/><path class="cls-7" d="M141.2,138v-.14A.17.17,0,0,0,141.2,138Z"/><path class="cls-7" d="M141.21,143.79c-.09-.81-.19-2.49-.35-.86C141,143.5,141.07,142.57,141.21,143.79Z"/><path class="cls-7" d="M141,138.64v1.46s.1-.3.16.09A11.81,11.81,0,0,0,141,138.64Z"/><polygon class="cls-7" points="140.92 137.92 141.04 138.64 141 138.09 140.92 137.92"/><path class="cls-7" d="M140.26,130.92c-.19-.61-.33-1.29-.54-2,.18.81.32,1.68.48,2.48C140.27,131.46,140.43,131.8,140.26,130.92Z"/><path class="cls-7" d="M140.75,134v-.14C140.72,134,140.72,134,140.75,134Z"/><path class="cls-7" d="M137.51,121.48v.13h0Z"/><path class="cls-7" d="M140.19,131.5a6.78,6.78,0,0,0,.32,1.33c-.11-.45-.21-1-.31-1.48C140.19,131.31,140.14,131.31,140.19,131.5Z"/><path class="cls-7" d="M139.26,126.34c.06.33.14.7.19,1.09A4,4,0,0,0,139.26,126.34Z"/><path class="cls-7" d="M140.73,133.65v.09C140.77,133.53,140.75,133.56,140.73,133.65Z"/><path class="cls-7" d="M140.73,133.65a7.64,7.64,0,0,0-.22-.81c.07.38.13.73.21,1A1.77,1.77,0,0,1,140.73,133.65Z"/><path class="cls-7" d="M135.63,119.73a6.8,6.8,0,0,1,1.25,2.89c.57,1.27.81.25.64-1-.09,0-.11,0-.74-1.32.14.5.9,3.09.36,2a11.07,11.07,0,0,1-.75-2.37c.12.81-1.18-2.14-1.31-1.63.28.49.5,1,.74,1.5C135.79,119.82,135.5,119.28,135.63,119.73Z"/><path class="cls-7" d="M138.41,124.23l.18.56c-.15-.66-.26-1.14-.43-2-.4-.92-.52-1.09-.6-1.14.31.94.64,1.86.93,2.79Z"/><path class="cls-7" d="M139.33,127.37c-.26-.41-.76-1.76-.69-.86a18,18,0,0,0,.77,2.13c-.7-2.73.29.76-.1-1.24.17.53.29,1,.41,1.47-.1-.5-.19-1-.27-1.44v.08h0v-.06l-.09-.1c-.16-.81,0-.14.09.1h0c-.25-.91-.58-1.8-.87-2.7C138.73,125.38,139,126.09,139.33,127.37Z"/><path class="cls-7" d="M140.47,141.44v-.09C140.47,141.17,140.46,141.12,140.47,141.44Z"/><path class="cls-7" d="M140.52,140.31a4.46,4.46,0,0,1,.12,1c0,.57-.08,0-.13,0,.06.4.17,1.39.22.14v-.2a12.38,12.38,0,0,1,.19-2.43A4.87,4.87,0,0,0,140.52,140.31Z"/><path class="cls-7" d="M140.19,133.75c-.13-.81-.32-1.54-.49-2.3l.08,1.2.07-.08C140.06,133.89,140.1,133.59,140.19,133.75Z"/><path class="cls-7" d="M137.51,121.19l.27.24c-.22-.41-.49-.81-.74-1.19Z"/><path class="cls-7" d="M136.35,118.36h.18c-.13-.24-.27-.48-.42-.71Z"/><path class="cls-7" d="M17.34,143.92l.05.67C17.37,144.27,17.35,144.07,17.34,143.92Z"/><path class="cls-7" d="M17.48,139.06l-.07-.13C17.44,139.16,17.47,139.25,17.48,139.06Z"/><path class="cls-7" d="M76.48,80.23c-1-.1-2.16-.27-2-.1l.33.16A12,12,0,0,1,76.48,80.23Z"/><path class="cls-7" d="M31.86,102.29l.23-.19.33-.6C32.25,101.74,32.05,102,31.86,102.29Z"/><path class="cls-7" d="M32,103.3l-.92.92C31.25,104,31.52,103.73,32,103.3Z"/><path class="cls-7" d="M23.49,169.5c.16.21.32.42.5.63C23.45,169.05,23.62,169.57,23.49,169.5Z"/><path class="cls-7" d="M117.35,93.73c-.65-.58-1.19-1-1.67-1.4C116.45,93.05,117,93.69,117.35,93.73Z"/><path class="cls-7" d="M15.47,141.93c0,.43.08.61.12.6C15.55,142.12,15.52,141.87,15.47,141.93Z"/><path class="cls-7" d="M113.61,90.9l.35.29c.59.35,1.16.73,1.72,1.14A9.44,9.44,0,0,0,113.61,90.9Z"/><path class="cls-7" d="M105.16,198.11l.2-.09Z"/><path class="cls-7" d="M128.12,181.61l-.71,1C127.55,182.4,127.76,182.11,128.12,181.61Z"/><path class="cls-7" d="M131.59,110.53c-.08-.11-.16-.18-.21-.17A.39.39,0,0,1,131.59,110.53Z"/><path class="cls-7" d="M107.53,88.53h0C107.63,88.62,107.61,88.6,107.53,88.53Z"/><path class="cls-7" d="M130.94,108.36c-.12-.21-.25-.46-.42-.72Z"/><path class="cls-7" d="M130.94,108.21l.29.49S131.27,108.68,130.94,108.21Z"/><path class="cls-7" d="M129.92,106.77c.22.3.43.59.6.87-.06-.11-.09-.16-.05-.14Z"/><path class="cls-7" d="M54.92,200.08l.12.06C55.66,200.32,55.39,200.22,54.92,200.08Z"/><path class="cls-7" d="M60.37,84.76h0Z"/><path class="cls-7" d="M58.28,85.6a5.74,5.74,0,0,1,2.1-.85c-.3-.08-.59-.19-.88-.26Z"/><path class="cls-7" d="M18.64,155.47l-.15-1.62c.61,1.83.81,3.2.73,1.7-.28-.05-.63-1.55-.87-3.08-.11-.75-.23-1.51-.35-2.09s-.21-1-.35-1v-1a4.69,4.69,0,0,0,.09.64c.05-2.05-.54-1.48-.59-4.12,0-.92.12-1.56.17-.94l-.13-2c0-.59.11-.45.1.15,0-1,.06-2.08.09-3.12h0c-.07-.44-.08-1.46-.1-2,.16-.81,0,.41.11.21,0-.58,0-1.16.05-1.73.12-.35.16-.16.15.26a13.25,13.25,0,0,1-.1,1.67,3.32,3.32,0,0,0,.36-1.72,12.6,12.6,0,0,1,.48-3.11c-.08.54-.12,1.08-.18,1.62.44-1,.58-2.24,1.13-4-.19.4-1.2,3.5-1,1.62a11.57,11.57,0,0,0,.4-2.19c.2,0,.39-.94.68-2.14l.23.16a13.75,13.75,0,0,0,.24-2,3.8,3.8,0,0,1,1-1.92c.82-2.21-.86,1.44.05-1.22.2-.46.36-.88.51-1.31s.34-.81.49-1.22c.32-.81.6-1.74,1.06-2.83.68-1.22,0,.28.33-.13l.34-1.2c.14-.27.15-.15.15-.09.41-1-.19-.2.52-1.67a5.77,5.77,0,0,1,1.07-1.8,15.37,15.37,0,0,0,1.79-2.67c.35-.37,0,.29.17.22l2.35-4c.44-.49.87-1,1.34-1.42-1.08,1-.08-.57.81-1.93-.41.33-.75.6-1,.81a25.86,25.86,0,0,1,1.62-2c.25-.19.13.06-.07.44l.28-.39c.69-.61.47-.15.13.42l-.74.57c-.29.59-.55,1.15-.34,1.15a6.41,6.41,0,0,1,.48-.68c-.07.15-.11.26,0,.22a5.62,5.62,0,0,0,.43-.65l.61-.23v-.18c.81-.81,1.62-1.54,2.43-2.26l1.1-1.39L38,96.7a16.22,16.22,0,0,1,1.48-1.51c.57-.52,1.18-1.12,1.94-1.7-.64.72,0,.4.15.63a7.12,7.12,0,0,0-1.69,1.25c-.64.56-1.31,1.26-2,1.89.81-.65.68-.41.52-.21.81-.81,1.69-1.62,2.55-2.43.06.2.66-.35,1.47-.81-.41,0,.09-.4.81-1s1.73-1.17,2.29-1.62c.15.07-.06.37-1.54,1.28,1.78-.76,1.8-1.77,3.59-2.48a2.29,2.29,0,0,0-.69.45,18.69,18.69,0,0,1,1.73-1c.59-.3,1-.45.81-.27l-.37.19,2.25-1.14L53.82,87a18.59,18.59,0,0,0,3.25-1.62,1.65,1.65,0,0,1-.34.64c1.43-.93,2.9-1.86,4.43-2.69-.34.42,1.49.61-.7,1.43a27.71,27.71,0,0,0,2.79-.81c-.46.06-1.22-.14-.62-.32,1.76-.07,1.21-.14,3.33-.31-.69.07,0-.53,1-.72-.15.1.17.43-.21.55.85-.32,1.71-.64,2.59-.9-.66.17-.06.4.55.44a5.79,5.79,0,0,1,1.13-.19c.69-.09,1.53-.13,1.89-.2H71.79c3-.23,3-.91,6-1-.37.1-.9.58.64.64a16.37,16.37,0,0,1,5.88-1l.51.19a16.4,16.4,0,0,1,2.1.09l-3.25.35L80,82a8.5,8.5,0,0,0,2,.24c.59.16-.93.14-1.43.12,1.31.1,2.62.17,3.93.35-.09-.14.68-.14,1.44-.12s1.52.11,1.46,0c-1.43-.15-2.87-.15-4.3-.21-.07-.14.55-.28,1.57-.33a16,16,0,0,1,3.78.26c.7.21-.6.39-.56.49a13.52,13.52,0,0,1,2.9.41l-1.2-.09a12,12,0,0,0,2.07.31,8.1,8.1,0,0,1,2.27.55c.63.17,1.77.86,1.92.74-.92-.61-.88-1.62-.12-1.62l1.78.73a18.26,18.26,0,0,1,2.09,1c.93.6-1.72,0-.93.52a2.45,2.45,0,0,1,.89.11c.63.29-.34.11,1.07.59.33-.17,2.77,1.19.73.05a26.27,26.27,0,0,1,3,1.34c-.42-.39,1.63.08,3,.71-.11,0,.14.26.26.37l1.77,1,1.47,1,1.43.93,1.57,1.1c.18.2,1.23,1,.69.82a10.39,10.39,0,0,1,1.39.86c1.17,1.2-1.54-1.13-.71-.13a16.17,16.17,0,0,1,2.9,1.88,4.39,4.39,0,0,0-1.26-1.17c-.67-.47-1.44-1-2-1.3.09-.14.62,0,1.43.47.41.22.89.48,1.4.81s1.08.76,1.63,1.2c1.82,1.48.6.81,1,1.07a24.25,24.25,0,0,0,1.87,1.63c.46.4.81.67,1.16.93a10.38,10.38,0,0,1,2.43,2.43c.81,1.23-.29.33-.19.67a21.06,21.06,0,0,1-1.52-1.76c-.42-.5-.81-1-1.24-1.42l1,1.22A18.18,18.18,0,0,1,122,99c.36.45.73.88,1.13,1.29l.91,1,1,1.16c.35.39.71.81,1.06,1.22l1,1.29a25,25,0,0,1,1.68,2.39c.41.44,1.08,1.23.86.81l-.65-.81c-.43-.91,1.38,1.49.66.35.49.54.93,1.15,1.44,1.82.25.35.51.7.76,1.08a11.68,11.68,0,0,1,.71,1.28v.45a7.12,7.12,0,0,0-.89-1.68c.51.69,1.3,2.84,2,3.52-.17-.44-.32-.9-.52-1.34.43.6.86,1.28,1.32,2a14.06,14.06,0,0,1,1.24,2.37c-.13-.81-.2-.37-.49-1.62.2,1.15-2.13-4.13-1.62-2.36a34.81,34.81,0,0,0-1.69-3.67c0,.09.2.6-.59-.71a2.73,2.73,0,0,1-.25-.23l0-.1v.08c0-.05-.05-.06,0,0a3.82,3.82,0,0,1,.31.72,18.48,18.48,0,0,1-1.22-1.55c-.5-.63-1-1.27-1.26-1.57-.49-.75.29.25.08-.2-.27-.3-.55-.6-.85-.89.07-.2-1.26-2.06.15-.46L127,103a21.47,21.47,0,0,0-2.35-2.78c-.61-.67-1.74-1.5-1.09-1l-1.09-1-1.14-1V97.1a43.37,43.37,0,0,0-3.52-2.93c-1.22-1-2.54-1.94-3.87-3l-1.36-.81c-.51-.3-1.08-.65-1.78-1.11l-.21-.3-2.14-1.25a7.29,7.29,0,0,0-1.72-.86A7.07,7.07,0,0,0,105.4,86a17.73,17.73,0,0,0-2.12-1c-.81-.3-1.57-.64-2.32-.9s-1.45-.5-2-.71l-.15.16c-.72-.28-1.47-.45-2.24-.68s-1.62-.43-2.55-.61l.06.21c-.81-.13-1.83-.45-3-.71l-1.8-.44c-.63-.12-1.27-.22-1.92-.32a4.74,4.74,0,0,1,1.3.18c-3-.94-6.59-.48-9.4-.81a8.24,8.24,0,0,1-1.72,0h-.12c-.31,0-.64,0-1-.07l.81.07c-.55,0-1.37.08-2.18.17l-.35-.18h-.19c-.81,0-.63.12-.2.24-.36,0-.72.12-1.07.2-.66-.23-2.1.28-3,.09a19.85,19.85,0,0,1-2.26.5,6.83,6.83,0,0,0-2.11.71s-.26,0,.16-.1a10.93,10.93,0,0,0-2.53.58l-.44-.15c-.61.25-1.22.53-1.81.81-1.18.2-1.69.26-.6-.26-1.35.52-1.88.74-2.37,1a21.76,21.76,0,0,0-2,.92l.06-.19a19.86,19.86,0,0,1-2.55,1.11,35.15,35.15,0,0,0-5.63,2.54c-2.43,1.37-5.13,3.06-7.22,4.46.54-.09,0,.19-.59.58s-1.35.88-1.31,1.09c-.3.09-.89.47-.31-.1l-2.36,2a9.1,9.1,0,0,0-1.73,1.83c-.28.12.28-.5.05-.37a4.48,4.48,0,0,1-.76.81c-.23.13.21-.33.47-.65a12.78,12.78,0,0,0-1.07,1.14,4.75,4.75,0,0,0-.5.76,1,1,0,0,0-.1.77,12.11,12.11,0,0,0-1.16,1.11,7.74,7.74,0,0,0-.72,1.13c-.38.29-.95.81.06-.46-.28.36-1.27,1.35-2,2.39s-1.48,2-1.38,2.12a6.91,6.91,0,0,0-.82,1.25c-1.18,1.67-1.23,1.85-2.27,3.56l.33-.45c-.16.81-.81,1.47-1.52,2.91v0A13.33,13.33,0,0,0,22,116.44c-.13.37-.35.7-1.15,2.34l.25-.11c.13.24-.23,1-.72,1.87a18.53,18.53,0,0,0-1.27,3.1l.35-.69a9.89,9.89,0,0,1-.91,2,11.12,11.12,0,0,0-1,2c-.09.23,0-.41.11-.76-1,2.92.15.45-.36,2.68-.22.37-.22-.62-.59.88a23.83,23.83,0,0,0-.4,2.76,31.66,31.66,0,0,1-.47,3.76c.14-.45.3-.9.27.17-.16,1.62-.76,4.35-.43,5.83,0,.2,0,.28-.08.29.05.62.05,1.62.15,2.57a13.45,13.45,0,0,0,.3,2.18A3.66,3.66,0,0,0,16,149a22.2,22.2,0,0,0,.36,2.56c.31,1.75.73,3.32.43,3.37.13.63.24,1.25.39,1.87l.47,1.85-.09-.09a16.47,16.47,0,0,0,.76,2.57,13.85,13.85,0,0,0,.62,1.36c.14.54,0,.18-.09.14A28.4,28.4,0,0,0,20,166.09,22.37,22.37,0,0,0,21.5,169l-.06.36A45.18,45.18,0,0,0,25.5,177a1.19,1.19,0,0,1-.29-.28c1.15,1.62,2.37,3.62,3.58,5.28s2.36,3,3.1,3.24c.6.63,1.28,1.17,1.91,1.76-2.29-2.44.58.13-.29-.94a17,17,0,0,1,1.26,1.55c.3.38.32.52-.26,0l-.15-.21c-.72-.11,2.9,3,2.69,3.07a65.29,65.29,0,0,0,16.07,10.45c-.18-.19-.37-.36-.54-.56.65.31,1.32.58,2,.86s.62.51-.81-.1a6.43,6.43,0,0,0,2.52.81c2.79,1.15-1.24-.07-.37.25l1.19.41-.26-.13a20.25,20.25,0,0,1,2.88.73c1.11.4.53.35,1,.5a4.35,4.35,0,0,0,.67.21c.87.25,1.75.47,2.64.7l-1-.49c1.19.19,2.43.62,1.32.07A26.35,26.35,0,0,0,70,205.42c1.21.18,2.44.25,3.37.36s1.69.09,2,.15l2.56-.08c.89,0,1.82,0,2.85,0-.52,0-.81-.27.94-.32-.32.27.5.33,1.57.27a25.49,25.49,0,0,1,3.15-.07c-.66,0,.6-.24,1.75-.43s2.21-.49,1.19-.46c1.46-.24.12.18,1.25.09a77,77,0,0,0,11.66-3.45c0-.09-.68.08.14-.36.76-.17,1.5-.39,2.26-.61.76-.4.56-.66,2.06-1.17-.22.05-.55.12,0-.16a51.68,51.68,0,0,0,11-7,101.43,101.43,0,0,0,9.57-9.09c-.87.81-.37.21.21-.48-.41.42-.13-.12-.29-.1.81-.91,1.62-1.8,2.44-2.74a9.2,9.2,0,0,1,1.15-1.93,6.22,6.22,0,0,0,1-1.79l-.56,1c.27-.73-.15-.35-.67.12s-1.18,1.07-1.28.87a5.39,5.39,0,0,1-.75,1.24c-.33.42-.75.85-1.16,1.32a20.87,20.87,0,0,0-2.49,3.13c-.45.41.24-.48,0-.29a9.48,9.48,0,0,1-2,2.38l.08-.16c-.72.81-1.43,1.45-2.06,2.06s-1.24,1.11-1.87,1.62-1.26,1.06-2,1.62-1.57,1.19-2.6,1.87l.41,0c-.49.33-1,.64-1.52.92-.81,1,2.43-1.72,1.72-.81a9.21,9.21,0,0,0-1.55.9l-2.2,1.4a23.84,23.84,0,0,1-2.18,1.26,4.45,4.45,0,0,1-1.41.57c-1.44.74.53,0-.92.72l-.43.09-.3.32a2.86,2.86,0,0,1-1.63.47c.24-.1.65-.34.9-.46-.78.3-1.55.64-2.3,1a14.91,14.91,0,0,1-1.69.74l1.48-.52a75.12,75.12,0,0,1-13.45,4.25h.33a15.69,15.69,0,0,1-3,.5c-.7.08-1.44.1-3.25.31h.13a14.71,14.71,0,0,1-2.65.28c.9-.15-1.72-.12-.53-.3-1.77.15-2.21.14-2.5.2a7.51,7.51,0,0,1-1.62.27l-.54-.18a9.27,9.27,0,0,1-2.68.07c1.48,0-1.13-.34.53-.34-.93-.17-1.74-.28-2.43-.34l-1.93-.2a7.26,7.26,0,0,1-2.83-.64c-.89,0-.1.25.81.45s1.9.3,1.4.29c.4.12,0,.14-.58.11a17.85,17.85,0,0,1-2-.33,7.72,7.72,0,0,1-1.75-.67c-.35-.16-.75-.32-1.25-.5L61,201.94c.29.1.32.07.6.16a11.22,11.22,0,0,0-1.62-.49,7.39,7.39,0,0,1-1.78-.63c-.81,0-1.7-.64-2-.41l2.64.88c-.75-.23-1.51-.38-2.38-.61a16.46,16.46,0,0,1-3-1.17,10.68,10.68,0,0,1,1.47.41c-.66-.4-1.38-.5-2.06-.94a5.75,5.75,0,0,1,1.9.63c.48.19,1,.41,1.49.6a14.28,14.28,0,0,0,1.42.4,14,14,0,0,0-1.68-.61c-.56-.2-.91-.34-.46-.34a6.31,6.31,0,0,1-2.1-.68A14.21,14.21,0,0,0,50.81,198l.21-.12a7.94,7.94,0,0,1-1.47-.63l1.07.29a33.53,33.53,0,0,1-4.12-2.43c1.42.87,1.55,1,1.47,1s-.39,0,.19.38c-3.65-1.91-1.81-1.62-5.62-4.11.51.35,1.85,1.42,1,.95a14.17,14.17,0,0,1-1.95-1.68c-2.43-1.8.26.44-.81-.25-.69-.81-1.22-.86-2.3-1.62l.12-.15c-1.3-1.15-1.48-1.29-1.7-1.33s-.38-.08-1.48-1.21l1.16.7-1.23-1.06a2.7,2.7,0,0,1,.39.08q-.78-.66-1.5-1.38A17.43,17.43,0,0,1,32.91,184c.16.4-.41.07-1.44-1.09-.59-.88.51.35-.88-1.33A4.54,4.54,0,0,1,31.92,183c.11,0,.41.29.53.32-.67-.92-1.78-2.2-2.27-2.81q.26.33.48.69l-1.09-1.16-1-1.21c-.24-.45.05-.16.31.12-.38-.51-.73-.81-1.26-1.62.27.11.36,0,1.19,1-.65-.81-1.22-1.62-1.82-2.43-.05-.21-.66-1.4-.4-1.11-.37-.74-1-1.57-1.55-2.48a21.35,21.35,0,0,1-1.6-2.84,4.92,4.92,0,0,1-.41-.7l-.59-1.41L21.9,166c-.18-.48-.38-1-.58-1.48s-.41-1.05-.66-1.62c-.05-.47-.14-.93-.17-1.4-.61-1.83.19,1.92-.81-1.13-.73-2.17,0-.88-.14-1.67-.2-.53-.48-1.25-.76-2.11a14.12,14.12,0,0,1-.53-2.9C18.43,154.31,18.49,154.85,18.64,155.47Zm-.31-23.61-.1.9a2.28,2.28,0,0,1-.15.81A2.88,2.88,0,0,1,18.33,131.86ZM34.55,100a6.52,6.52,0,0,1-1,1A10.41,10.41,0,0,1,34.55,100ZM126,102h0C125.29,101.09,125.51,101.38,126,102Zm1.34,1.74c.16.15.17.12.14,0a6.43,6.43,0,0,1-.81-.92,3.07,3.07,0,0,0,.67.92ZM60.94,203.56l-.39-.17C61.53,203.64,61.21,203.61,60.94,203.56Z"/><path class="cls-7" d="M32,103.17a.29.29,0,0,1-.21.09C31.66,103.42,31.68,103.44,32,103.17Z"/><path class="cls-7" d="M23.41,169.41v.06s.05.05.07.05Z"/><path class="cls-7" d="M99.39,85.73a7.85,7.85,0,0,1-.77-.38A2.56,2.56,0,0,0,99.39,85.73Z"/><path class="cls-7" d="M134,113.22c-.22-.41-.48-.81-.73-1.21a6.48,6.48,0,0,1,.57,1.15S133.84,112.83,134,113.22Z"/><path class="cls-7" d="M137.63,124.9c.08.19.12.41.2.59l.07-.08C137.65,124.58,137.41,124,137.63,124.9Z"/><path class="cls-7" d="M134.07,114.68c-.11.19.39.92.81,1.8l-.07-.15C135.13,116.49,134.63,115.57,134.07,114.68Z"/><path class="cls-7" d="M135,116.68c.14.28.27.56.38.82C135.49,117.6,135.22,117.16,135,116.68Z"/><path class="cls-7" d="M129.1,105.84c.25.41.35.12.45.38C130,106.51,127.51,103.81,129.1,105.84Z"/><polygon class="cls-7" points="133.95 115.63 133.97 115.22 133.57 114.82 133.95 115.63"/><path class="cls-7" d="M130.24,108.9l.81,1.34a1.81,1.81,0,0,1,.29.31A16.31,16.31,0,0,0,130.24,108.9Z"/><path class="cls-7" d="M131.33,110.55c.26.43.48.81.66,1.07C131.85,111.39,131.56,110.88,131.33,110.55Z"/><path class="cls-7" d="M132.89,113.77l-.17-.43-.54-1A9,9,0,0,1,132.89,113.77Z"/><path class="cls-7" d="M119.27,96.32l-1.34-1c-.18-.06.15.26.65.65C118.92,96.16,119.42,96.52,119.27,96.32Z"/><path class="cls-7" d="M122.6,100.25a2.86,2.86,0,0,1-.4-.64l-.22.13Z"/><path class="cls-7" d="M119,96.91c-.17-.06-2-1.42-.36-.06C118.83,96.9,120.14,98,119,96.91Z"/><polygon class="cls-7" points="97.15 84.23 97.57 84.35 97.63 83.95 97.15 84.23"/><path class="cls-7" d="M75,82.41c2,0,.45-.29,2.24-.22.47-.13-1.46,0-1-.16C75.1,82.19,74.5,82.16,75,82.41Z"/><path class="cls-7" d="M76.3,82l.64-.11Z"/><path class="cls-7" d="M131.08,177.83c.28-.33.52-.7.77-1.06l-.56.65A1.33,1.33,0,0,1,131.08,177.83Z"/><path class="cls-7" d="M132.15,175.54l.39-.13.21-.81A6.23,6.23,0,0,1,132.15,175.54Z"/><path class="cls-7" d="M19.6,128.53v-.1a4,4,0,0,0-.35,1Z"/><polygon class="cls-7" points="17.64 145.51 17.63 145.21 17.42 145.77 17.64 145.51"/><path class="cls-7" d="M20.17,159.63c-.16-.56-.38-1.21-.5-1.79C20,159.07,19.93,159.86,20.17,159.63Z"/><path class="cls-7" d="M51.8,164.14c-.2-.24-.26,0-.31-.07C51.86,164.45,51.8,164.11,51.8,164.14Z"/><polygon class="cls-7" points="55.58 167.66 55.46 167.65 56.13 168.04 55.58 167.66"/><path class="cls-7" d="M59.26,170.7c-.19-.5-1.39-1-2-1.62l-.06-.14-.46-.05C57.58,169.5,58.73,170.2,59.26,170.7Z"/><path class="cls-7" d="M61.11,172.61c-.08-.19.52.21-.49-.36l.07.08Z"/><path class="cls-7" d="M62.79,173.44l-.65-.22c.09.13.63.41.4.35C63.19,173.83,63.09,173.71,62.79,173.44Z"/><path class="cls-7" d="M63.46,173.56l-.33-.12A.41.41,0,0,0,63.46,173.56Z"/><path class="cls-7" d="M62.42,173.17l.71.25c-.07-.09,0-.18-.32-.12C62.9,173.25,62.74,173.26,62.42,173.17Z"/><path class="cls-7" d="M62.07,172.94c-.32-.22-.7-.52-.07-.26C60.89,172,60.93,172.34,62.07,172.94Z"/><path class="cls-7" d="M59.65,170.59a4.12,4.12,0,0,1-.37-.35l-.39-.19a3,3,0,0,1,.43.35C59.48,170.54,59.63,170.63,59.65,170.59Z"/><path class="cls-7" d="M66.59,175.28c0-.05-.16-.24-.18-.34l-.49-.11C66.14,175,66.59,175.18,66.59,175.28Z"/><path class="cls-7" d="M66.39,174.94l.73.17C66.53,174.86,66.39,174.87,66.39,174.94Z"/><polygon class="cls-7" points="63.71 173.3 62.52 172.96 63.91 173.4 63.71 173.3"/><polygon class="cls-7" points="69.31 176.15 68.86 176.18 69.64 176.17 69.31 176.15"/><path class="cls-7" d="M71.15,176.61c-.34,0,.38.26,0,.28a6.37,6.37,0,0,0,1.38,0A5.06,5.06,0,0,1,71.15,176.61Z"/><path class="cls-7" d="M73.25,176.9h-.68A3.86,3.86,0,0,0,73.25,176.9Z"/><path class="cls-7" d="M68.33,175.54a1.08,1.08,0,0,0,.51.33l-.22-.24Z"/><path class="cls-7" d="M68.61,175.62h0l.6.18Z"/><path class="cls-7" d="M68.26,175.52h.07A0,0,0,0,0,68.26,175.52Z"/><path class="cls-7" d="M65.4,174.25c.43.07,1.31.3.56-.16C65.62,174.09,66.05,174.37,65.4,174.25Z"/><path class="cls-7" d="M68,175.22a7.6,7.6,0,0,1-.73-.31c0,.05.12.16-.1.13A6.2,6.2,0,0,0,68,175.22Z"/><polygon class="cls-7" points="68.36 175.27 67.97 175.22 68.25 175.31 68.36 175.27"/><path class="cls-7" d="M71.94,176.51a6.27,6.27,0,0,1,1.14.1c-.44-.11-.9-.21-1.33-.29C71.67,176.36,71.46,176.43,71.94,176.51Z"/><path class="cls-7" d="M70.31,176.11h.07S70.31,176.08,70.31,176.11Z"/><polygon class="cls-7" points="77.19 177.04 77.12 177 77.11 177.03 77.19 177.04"/><path class="cls-7" d="M71.67,176.28a1.79,1.79,0,0,0-.73-.07,5,5,0,0,1,.81.11S71.79,176.29,71.67,176.28Z"/><path class="cls-7" d="M74.41,177c-.17-.05-.37-.1-.57-.17A1.23,1.23,0,0,0,74.41,177Z"/><path class="cls-7" d="M70.45,176.19h0C70.53,176.26,70.52,176.23,70.45,176.19Z"/><path class="cls-7" d="M70.45,176.19a1.77,1.77,0,0,0,.46,0,5,5,0,0,0-.56-.09Z"/><path class="cls-7" d="M78.44,175.93a2,2,0,0,1-1.67.1c-.73.06-.3.63.35,1,0-.08,0-.1.81-.22-.26,0-1.69-.28-1-.38a3.08,3.08,0,0,1,1.31.17c-.41-.19,1.29-.31,1.06-.6l-.87.12C78.37,176,78.69,176,78.44,175.93Z"/><path class="cls-7" d="M75.65,176.87h-.34a5.68,5.68,0,0,1,1.09.31c.54,0,.65-.09.69-.14l-1.57-.15Z"/><path class="cls-7" d="M73.89,176.73c.27-.11,1-.16.6-.37a5,5,0,0,0-1.22,0c1.48.22-.45,0,.62.31a6.26,6.26,0,0,1-.81-.09l.76.21h0c-.07,0-.08,0,0,0h0l.07,0c.43.11.07,0-.07,0h0c.5.07,1,0,1.52.06C75,176.8,74.6,176.8,73.89,176.73Z"/><path class="cls-7" d="M66.83,174v.05C66.83,174.14,67,174.1,66.83,174Z"/><path class="cls-7" d="M67.37,174.37a1.3,1.3,0,0,1-.55-.12c-.26-.17,0-.08,0-.14-.21,0-.73-.15-.14.17h.1a3.82,3.82,0,0,1,1.09.74A2.3,2.3,0,0,0,67.37,174.37Z"/><path class="cls-7" d="M70.6,175.67a10.55,10.55,0,0,0,1.24.17l-.6-.26v.1C70.58,175.5,70.71,175.62,70.6,175.67Z"/><path class="cls-7" d="M77.33,177.14l-.18.17a6,6,0,0,0,.75-.26Z"/><polygon class="cls-7" points="78.98 177.09 78.92 177.25 79.35 177.15 78.98 177.09"/><path class="cls-7" d="M90.15,113.63l-.34-.08Z"/><path class="cls-7" d="M92.47,114.67h.09C92.44,114.61,92.38,114.62,92.47,114.67Z"/><path class="cls-7" d="M110.09,155.11c.34-.45.81-1,.58-.94l-.23.09A3.71,3.71,0,0,1,110.09,155.11Z"/><path class="cls-7" d="M107.8,128.66v.16l.29.26A3.13,3.13,0,0,0,107.8,128.66Z"/><path class="cls-7" d="M106.94,128.67l-.23-.65C106.78,128.24,106.85,128.46,106.94,128.67Z"/><path class="cls-7" d="M76.58,111.6a3.49,3.49,0,0,0-.39.19C76.82,111.75,76.54,111.7,76.58,111.6Z"/><path class="cls-7" d="M95.06,172.64a10.43,10.43,0,0,0,1.08-.48C95.59,172.35,95.12,172.44,95.06,172.64Z"/><path class="cls-7" d="M91.83,112.27c-.22,0-.33,0-.34,0C91.72,112.31,91.86,112.33,91.83,112.27Z"/><path class="cls-7" d="M97.26,171.41l-.23.1a4.72,4.72,0,0,1-.89.65A2.67,2.67,0,0,0,97.26,171.41Z"/><path class="cls-7" d="M46.61,145.32v.11A.31.31,0,0,0,46.61,145.32Z"/><path class="cls-7" d="M49.36,160.08c-.09-.13-.21-.34-.32-.54A3.65,3.65,0,0,0,49.36,160.08Z"/><path class="cls-7" d="M83.8,176.08a.13.13,0,0,0,.11-.11A.2.2,0,0,1,83.8,176.08Z"/><path class="cls-7" d="M99.35,168.48Z"/><path class="cls-7" d="M85.05,176.44a1.83,1.83,0,0,0,.45,0Z"/><path class="cls-7" d="M85.13,176.51l-.3.05S84.83,176.61,85.13,176.51Z"/><path class="cls-7" d="M86.05,176.3a5,5,0,0,1-.56.1h.08Z"/><path class="cls-7" d="M55.46,120.52l-.06,0C55.22,120.84,55.32,120.74,55.46,120.52Z"/><path class="cls-7" d="M110.24,144.92a2,2,0,0,1,.06,1.18l.53-.35Z"/><path class="cls-7" d="M84.32,112l.81.3c-1,.08-1.72-.13-1,.22.11-.25.91-.17,1.68,0s1.55.4,1.69.14l.49.26c-.15,0-.19,0-.33-.06.94.52.87-.16,2.15.4.43.21.71.4.38.34l1,.26c.29.13.17.18-.11.06.51.2,1,.46,1.48.67h0c.35.06.7.13,1,.22.33.25-.21,0-.15.06.29.1.59.18.87.3.12.16,0,.17-.21.1a3.57,3.57,0,0,1-.81-.34,1,1,0,0,0,.73.57,3.83,3.83,0,0,1,1.39.88L94.7,116c.3.56.92.81,1.63,1.48-.13-.21-1.35-1.43-.45-1a3.31,3.31,0,0,0,1,.59c-.11.17.33.44.81.81l-.19.18c.59.36.63.22,1,.39.6.49.6.74.61,1,.87.88-.41-.81.69.14a7.35,7.35,0,0,0,1,1,11,11,0,0,1,1.22,1c.41.61-.2,0-.09.26l.58.35c.1.12,0,.12,0,.13.41.36.22-.14.81.47.18,0,.41.38.66.88a3.67,3.67,0,0,0,.95,1.43c.09.26-.2,0-.24.12,1,1.07.86.91,1.68,1.81l.35,1c-.2-.75.47,0,1,.64,0-.28-.08-.52-.12-.68a12.07,12.07,0,0,1,.74,1.17c0,.17-.11.08-.29-.08l.15.2c.11.49-.13.32-.4.07l0-.52c-.31-.23-.62-.42-.72-.29a2.26,2.26,0,0,1,.28.35c-.08-.05-.15-.09-.15,0s.13.14.27.32l-.14.4h.13l.52,1.68.58.76.53.81a10.91,10.91,0,0,1,1,2.32c-.31-.44-.36,0-.61,0,.12-.59-.57-1.44-.81-2.44.13.52,0,.44-.1.33l.81,1.67c-.2,0,0,.41,0,.9.32-.45.54,1.27.81,2-.12.06-.3-.08-.45-1-.11,1,.81,1.18.61,2.21,0-.22,0-.34-.09-.42.17.5.21,1.78.07,1.5v-.23a13,13,0,0,0,.14,1.32c.05.51,0,1,.07,1.5a4.92,4.92,0,0,0,.34,1.9,1.5,1.5,0,0,1-.48-.3c.35.88.64,1.8,1,2.74-.28-.26-1,.55-1.11-.69a7.76,7.76,0,0,0-.15,1.52c.09-.23.52-.54.5-.21a10.81,10.81,0,0,0-.75,1.62c.12-.35.51.13.4.7-.06-.11-.46-.05-.47-.26A10.44,10.44,0,0,1,110,151c0-.36-.36-.15-.57.12a13.35,13.35,0,0,1-.39,1.54l.27-.55c-.47,1.53.13,1.71-.45,3.25,0-.22-.37-.65-.71.07a6.55,6.55,0,0,1,.18,1.32,5.6,5.6,0,0,1-.31,2l-.24.19a7.83,7.83,0,0,1-.4,1.05c.08-.77.24-2.85.43-3.86-.35.49-.22.09-.6.88-.25.23,0-.51.16-.74l-1,1.8c.14,0,0,.4-.1.81s-.32.74-.2.76a19.14,19.14,0,0,0,.81-2.11c.14,0,.17.39.07.94a4,4,0,0,1-.26.9,7.78,7.78,0,0,1-.52.94c-.3.26-.27-.49-.37-.51a5.34,5.34,0,0,1-.71,1.36l.2-.58a3.42,3.42,0,0,0-.5,1,2.28,2.28,0,0,1-.74,1c-.23.26-.89.58-.81.73.57-.24,1.41.25,1.35.7l-.76.7a5.22,5.22,0,0,1-1,.72c-.57.25.15-1-.33-.81a2,2,0,0,1-.17.46c-.31.22-.08-.26-.59.33.11.28-1.11,1.13-.08.43a8.07,8.07,0,0,1-1.24,1.17c.34-.05-.2,1-.75,1.55,0-.08-.21,0-.3,0l-.81.67c-.27.18-.53.34-.81.5-.51.31-1,.62-1.62,1-.15,0-.81.35-.58.08a3.23,3.23,0,0,1-.68.54c-.88.22.86-.52.13-.44,0,.17-.9.76-1.42,1.16.29.12,1.33-.69,1.84-1.08.19.28-.62,1.14-1.93,2-1.07.65-.58,0-.75.18a6.34,6.34,0,0,0-1.85,1.07,3.09,3.09,0,0,1-1.69.74c-.81,0-.17-.41-.38-.51a6,6,0,0,1,1.19-.34,6.58,6.58,0,0,0,1-.31l-.82.24a4.68,4.68,0,0,1,1.23-.6,43.42,43.42,0,0,1-5.46,1.62c-.29.14-.81.32-.53.36l.54-.15c.55.06-1,.46-.27.39-.36.14-.74.3-1.17.45-.23.07-.46.14-.69.19a7.17,7.17,0,0,1-.81.07l-.23-.23a1.92,1.92,0,0,0,1,0c-.44.16-1.68-.15-2.14.23l.81.09a7.59,7.59,0,0,1-2.67.52c.46.24.22,0,.94.25-.63-.3,2.48-.27,1.48-.54a10.13,10.13,0,0,0,2.2.14c0-.08-.35-.09.46-.22a.91.91,0,0,1,.16-.11h0a1,1,0,0,1-.43,0,18,18,0,0,1,2-.72c.48-.06-.17.14.11.16a3.64,3.64,0,0,0,.59-.3c.11.16,1.31-.09.25.35l1-.3a6.52,6.52,0,0,0,1.89-.55c.46-.15,1.06-.67.72-.37l1.43-.74h0a13.14,13.14,0,0,0,2.13-1.21c.73-.45,1.51-.81,2.32-1.25a12.7,12.7,0,0,1,1.63-1.17h.23A11,11,0,0,0,100.7,169a2.26,2.26,0,0,0,.82-.41,5.09,5.09,0,0,0,.92-.81c.62-.68,1.22-1.41,1.68-1.83l-.13-.17a16.55,16.55,0,0,0,1.56-2.17l-.18-.06c.46-.75,1.4-1.79,2.14-3a1.48,1.48,0,0,1-.37.61,5.33,5.33,0,0,0,.81-1,9.19,9.19,0,0,0,.52-1.21,12.36,12.36,0,0,1,1-2.25,2.46,2.46,0,0,1,.34-.86.14.14,0,0,0,0,.09l0-.14.28-.46a2.45,2.45,0,0,0-.24.38c.09-.28.23-.7.34-1.12l.26-.11v-.09c.21-.39,0-.35-.19-.19a2.88,2.88,0,0,0,.06-.59c.39-.23.2-1.11.64-1.48a6.3,6.3,0,0,1,.18-1.22c0-.55,0-1.08-.09-1.23,0,0,.09-.12,0,.11a4.63,4.63,0,0,0,.23-1.37l.28-.17a6.62,6.62,0,0,0-.2-1.08c.21-.61.31-.88.46-.22-.18-1.56,0-1.26-.21-2.56l.15.06c0-.46-.24-1.21-.11-1.48.39-1.06-.26-5.14-.68-7.8-.18.32-.18,0-.21-.39s-.12-.86-.31-.86c.06-.18,0-.56.23-.17-.53-1.27-.42-2.06-1.11-2.8,0-.19.27.21.27.06a1.23,1.23,0,0,1-.25-.53c0-.16.16.15.29.34-.58-1.3-.94-1.29-1.28-1.24a2.82,2.82,0,0,0-.25-.81,2.37,2.37,0,0,0-.5-.55c0-.26-.13-.67.33.08-.23-.43-1.3-2.7-1.58-2.59a2.56,2.56,0,0,0-.47-.66c-.61-.9-.64-1-1.27-1.85l.13.26c-.47-.17-.59-.65-1.18-1.29h0a6.2,6.2,0,0,0-.92-1.25,2.68,2.68,0,0,1-.28-.3c-.11-.16-.3-.39-.61-.81l-.06.21c-.43.18-1.07-1.37-2-2l.23.35c-.53-.31-1-1.5-1.45-2-.09-.11.2.09.38.19-1.16-1.22-.33.06-1.33-.64-.1-.24.45-.12-.22-.61-.3-.31-2.25-.94-3.1-1.69.17.2.33.41-.21.22-.81-.33-1.92-1.44-2.78-1.43-.09-.06-.13-.1-.12-.13a16.16,16.16,0,0,0-2.49-.61c-.39-.81-4-.81-3.88-1.32l-2-.32.06,0a4.43,4.43,0,0,0-2.23,0c-.3-.07-.08-.11,0-.13a7.33,7.33,0,0,0-3.69.13l-.17-.2c-.21.06-.9,0-1.76,0a7.69,7.69,0,0,0-1.41.09,5.35,5.35,0,0,0-1.42.29.43.43,0,0,1,.18-.14c-1.1.28-2.22.5-3.35.67s-2,.52-2.21,1a13.22,13.22,0,0,0-1.22.69c1.62-.65-.13.39.59.22-.61.31-1.73.51-1,.13h.14c.14-.47-2.1.73-2.15.52A38.23,38.23,0,0,0,55,119a1.6,1.6,0,0,0,.48,0c-.29.25-.55.55-.82.81s-.44.13.13-.45a2.32,2.32,0,0,0-.81,1.16c-1.2,1.09.18-.7-.16-.34l-.45.5.13-.09c-.15.25-.2.39-.3.57s-.27.39-.57.81-.34.14-.5.33c0,0-.08,0-.24.29L51,123.65l.54-.32c-.31.56-.81,1.08-.22.69a10.73,10.73,0,0,0-2,2.5c-.64,1.14-1.13,2.3-1.33,2.53s-.13.44-.22.65-.13.44-.21.67c-.15.44-.33.9-.54,1.41.15-.24.45-.3.09.56-.19-.24-.44.13-.63.68a5.6,5.6,0,0,1-.69,1.54c.22-.3.05.36-.08,1s-.16,1.19.1.71c-.18.76-.21,0-.44.56-.16,1.89-.81,4.12-.69,6.49.08,0,.18-.35.3.15l-.34,1.24c.06.46.38.4.23,1.26.05-.13.12-.3.18,0a23.36,23.36,0,0,0,1.21,6.83c.38,1.11.7,2.24,1.17,3.31.21.54.42,1.1.6,1.62s.46,1.08.66,1.62c-.19-.62,0-.25.27.17-.12-.29.15-.08.21-.19.24.61.45,1.23.73,1.83.43.14,1.21,1.7,1.53,1.71l-.39-.47c.72.49-.09-1.31.31-1.42a1.77,1.77,0,0,1-.5-.59c-.12-.25-.22-.56-.33-.86a4.06,4.06,0,0,0-1.07-1.82c-.08-.32.25.18.25,0a2.74,2.74,0,0,1-.81-1.42l.08.06a12.55,12.55,0,0,1-1-2.64l-.28-1.28a14.6,14.6,0,0,1-.36-1.62l-.14.22a4.21,4.21,0,0,1-.07-.94c-.41-.56.31,1.54-.13,1a7.09,7.09,0,0,0-.27-2.29,4.27,4.27,0,0,1,0-2.13c-.09-.81-.19.28-.29-.57l.1-.23-.18-.2c0-.56.15-.85.23-.88a1.94,1.94,0,0,0,0,.53,17.35,17.35,0,0,0,0-2.28l-.06.81c0-.58-.08-1.18,0-1.81l.14-1.9.07-1,.14-.93c.08-.61.16-1.21.19-1.77l-.11.15a3.85,3.85,0,0,1,.15-1c.06-.23.13-.4.19-.57a10.44,10.44,0,0,0,.5-1.62v.07a3.8,3.8,0,0,1,.35-1.36c-.08.47.51-.77.39-.15a6.73,6.73,0,0,0,.36-2.18l.27-.2a3.67,3.67,0,0,1,.4-1.37c-.23.77.48-.43.24.43a6.38,6.38,0,0,0,.67-1.12c.18-.34.34-.64.47-.91a2.46,2.46,0,0,1,.81-1.22c.13-1-1.11,1.32-.91.81-.35.29.14-.81.51-1.31s1.07-.58,2-1.83c-.1.12-.08.14-.18.27a3.41,3.41,0,0,0,.54-.71,1.91,1.91,0,0,1,.68-.73c.09-.46.66-.67.51-1l-1,1.11a9.41,9.41,0,0,1,1.86-2.35,4.3,4.3,0,0,1-.41.72c.35-.22.47-.63.86-.81.11.28-1.19,1.33-1.62,2.12.4-.21,1-1.36.93-.81a1.73,1.73,0,0,1,.67-1,4,4,0,0,0,1.05-1l.07.19a3.72,3.72,0,0,1,.56-.63l-.27.56c.53-.73,1.36-1,2-1.5-.7.49-.81.51-.81.44s0-.26-.29-.08c1.62-1.47,1.31-.31,3.25-1.74-.26.19-1.07.59-.7.22a4,4,0,0,1,1.2-.47c1.36-.81-.32,0,.22-.48.58-.06.63-.46,1.21-.88l.09.18.81-.4a.39.39,0,0,0,.18-.22c.05-.13.08-.24.87-.5l-.53.52.76-.4-.08.27a5.75,5.75,0,0,1,.94-.52,4.48,4.48,0,0,1,1-.32c-.25-.06,0-.37.76-.62.56-.06-.23.26.82-.11a1.19,1.19,0,0,1-1,.41c0,.08-.2.19-.23.27a8.71,8.71,0,0,0,1.8-.55,3.13,3.13,0,0,1-.44.1l.76-.38.81-.3c.27,0,.08.12-.11.21.32-.08.53-.22,1-.34-.1.18,0,.34-.69.55l1.49-.5c.12,0,.81,0,.63.13.86,0,2.06-.57,3.24-.52a1,1,0,0,1,.41-.09c.55,0,1.06.06,1.63.08h.81a6.91,6.91,0,0,0,.91,0l.69.34c1,0-1-.44.73-.42,1.19,0,.42.28.81.41a5.9,5.9,0,0,1,2.7.27A9.55,9.55,0,0,1,84.32,112Zm11.49,4.47c-.23-.1-.7-.25-.81-.43C95.37,116,95.49,116.18,95.81,116.46Zm12.4,14.12a1.65,1.65,0,0,1-.26-.74A2.71,2.71,0,0,1,108.21,130.58Zm-19,44.7h0c.59-.15.39-.1,0,0Zm-1.15.28c-.1.07-.09.09,0,.1a1.69,1.69,0,0,1,.61-.24,1.07,1.07,0,0,0-.61.1Zm-36-53.16.19-.14c-.28.39-.23.25-.19.1Z"/><path class="cls-7" d="M107.07,128.68a.19.19,0,0,1,.05-.14C107,128.47,107,128.48,107.07,128.68Z"/><path class="cls-7" d="M102.08,164.82a1.22,1.22,0,0,1,.38-.26S102.34,164.56,102.08,164.82Z"/><path class="cls-7" d="M82,177.08l.75-.14a2.58,2.58,0,0,1-.68,0C82.09,177,82.24,177,82,177.08Z"/><path class="cls-7" d="M75.52,175.93h-.34V176C75.66,176.05,76,176,75.52,175.93Z"/><path class="cls-7" d="M81.25,176.51c-.07-.18-.53,0-1,0h.09C80.18,176.74,80.71,176.66,81.25,176.51Z"/><path class="cls-7" d="M80.07,176.52H79.6C79.54,176.62,79.79,176.54,80.07,176.52Z"/><path class="cls-7" d="M86.67,176c-.26,0-.11.24-.26.2C86.19,176.52,88,175.63,86.67,176Z"/><polygon class="cls-7" points="80.79 176.01 80.99 176.19 81.26 176 80.79 176.01"/><path class="cls-7" d="M84.84,175.59l-.81.12a.62.62,0,0,1-.21.11A4,4,0,0,0,84.84,175.59Z"/><path class="cls-7" d="M83.81,175.82c-.22,0-.43.07-.65.12A3.55,3.55,0,0,0,83.81,175.82Z"/><polygon class="cls-7" points="81.9 175.83 82.14 175.84 82.73 175.79 81.9 175.83"/><path class="cls-7" d="M93.24,172.75l.76-.49c0-.11-.19,0-.47.16S93.08,172.75,93.24,172.75Z"/><path class="cls-7" d="M90.54,173.36a.94.94,0,0,1,.41,0l-.07-.24Z"/><path class="cls-7" d="M92.87,172.27c0-.11,1-.81.07-.25C92.9,172.14,92.13,172.59,92.87,172.27Z"/><polygon class="cls-7" points="103.52 164.25 103.38 164.43 103.72 164.67 103.52 164.25"/><path class="cls-7" d="M108.4,153.64c-.46.92.16.32-.3,1.14,0,.26.37-.68.37-.42C108.56,153.75,108.77,153.46,108.4,153.64Z"/><path class="cls-7" d="M108.47,154.36a.66.66,0,0,1-.06.33Z"/><polygon class="cls-7" points="50.52 162.37 50.85 163 50.7 162.54 50.52 162.37"/><path class="cls-7" d="M51.54,163.29l-.12.3.43.2A1.74,1.74,0,0,1,51.54,163.29Z"/><path class="cls-7" d="M97,117.93h.07c0-.11-.16-.22-.39-.41Z"/><polygon class="cls-7" points="89.29 113.57 89.43 113.63 89.24 113.3 89.29 113.57"/><path class="cls-7" d="M82,112.14a6.23,6.23,0,0,1,1,.09C82.29,112.14,81.93,111.84,82,112.14Z"/><path class="cls-7" d="M78.74,189.78c-.43,0-.27.17-.34.2C79.13,189.9,78.73,189.73,78.74,189.78Z"/><polygon class="cls-7" points="85.77 188.76 85.66 188.84 86.66 188.52 85.77 188.76"/><path class="cls-7" d="M92.21,187.34c-.69-.1-2.31.64-3.47.81h-.2l-.47.36A40.61,40.61,0,0,1,92.21,187.34Z"/><path class="cls-7" d="M95.75,186.67c-.25,0,.69-.36-.81.25h.15Z"/><path class="cls-7" d="M98.08,185.58l-.81.48c.2,0,1-.36.69-.18C98.83,185.41,98.61,185.44,98.08,185.58Z"/><path class="cls-7" d="M98.77,185l-.41.24A.72.72,0,0,0,98.77,185Z"/><path class="cls-7" d="M97.49,185.77l.87-.53c-.14,0-.19-.05-.4.24C98,185.36,97.85,185.53,97.49,185.77Z"/><path class="cls-7" d="M97,186c-.49.18-1.14.36-.32-.07-.81.35-1.15.51-1.06.54A4,4,0,0,0,97,186Z"/><path class="cls-7" d="M92.43,186.9a5,5,0,0,1-.67.13l-.54.24a6,6,0,0,1,.73-.19C92.24,187,92.47,186.93,92.43,186.9Z"/><path class="cls-7" d="M103.23,182.94c0-.08-.36,0-.46,0l-.55.42A4.49,4.49,0,0,1,103.23,182.94Z"/><path class="cls-7" d="M102.77,182.93l.81-.61C102.81,182.78,102.69,182.91,102.77,182.93Z"/><polygon class="cls-7" points="98.78 184.64 97.37 185.57 99.07 184.5 98.78 184.64"/><polygon class="cls-7" points="106.46 180.73 106.08 181.19 106.79 180.39 106.46 180.73"/><path class="cls-7" d="M108.51,179.11c-.25.38.56-.24.27.12a12.77,12.77,0,0,0,1.24-1.41A9.28,9.28,0,0,1,108.51,179.11Z"/><path class="cls-7" d="M110.61,177.11c-.2.21-.38.45-.59.71A6.73,6.73,0,0,0,110.61,177.11Z"/><path class="cls-7" d="M105.05,181.37a1.65,1.65,0,0,0,.75-.34l-.42.11Z"/><path class="cls-7" d="M105.36,181.14h0l.7-.52Z"/><path class="cls-7" d="M105,181.43l.08-.06A.16.16,0,0,0,105,181.43Z"/><path class="cls-7" d="M101.22,183.55c.46-.39,1.46-1.12.36-.63C101.26,183.24,101.91,183,101.22,183.55Z"/><path class="cls-7" d="M104.45,181.55c-.3.21-.62.36-.94.55,0,0,.25,0,0,.18C103.84,182,104.16,181.81,104.45,181.55Z"/><polygon class="cls-7" points="104.84 181.19 104.45 181.55 104.78 181.33 104.84 181.19"/><path class="cls-7" d="M109.12,178.24a10.19,10.19,0,0,1,1.07-1.11c-.48.38-1,.81-1.42,1.21C108.77,178.42,108.63,178.7,109.12,178.24Z"/><path class="cls-7" d="M107.33,179.7l.07-.08C107.35,179.65,107.3,179.68,107.33,179.7Z"/><polygon class="cls-7" points="114.14 173.01 114.05 173.06 114.06 173.09 114.14 173.01"/><path class="cls-7" d="M108.69,178.42a3.41,3.41,0,0,0-.7.72c.25-.24.51-.5.81-.77C108.81,178.3,108.8,178.28,108.69,178.42Z"/><path class="cls-7" d="M111.7,176c-.18.15-.4.33-.63.5A1.71,1.71,0,0,0,111.7,176Z"/><path class="cls-7" d="M107.56,179.57l0,.05C107.65,179.55,107.63,179.55,107.56,179.57Z"/><path class="cls-7" d="M107.56,179.57a4.68,4.68,0,0,0,.43-.46l-.59.51Z"/><path class="cls-7" d="M114.31,171a2.13,2.13,0,0,1-.32.76,5.9,5.9,0,0,1-.43.59,5,5,0,0,1-.59.53c-.6.81.25.7,1.08.21,0-.07,0-.08.51-1-.25.28-1.68,1.66-1.2.9a6.48,6.48,0,0,1,.82-.9,3.33,3.33,0,0,0,.48-.43c-.5.33.81-1.62.42-1.53l-.65,1C114.35,171.12,114.55,170.71,114.31,171Z"/><path class="cls-7" d="M112.67,174.55l-.28.35a10.24,10.24,0,0,1,1.19-1c.43-.6.49-.75.48-.81l-1.47,1.62Z"/><path class="cls-7" d="M111,176.34c.15-.34.81-1.2.22-.81a10,10,0,0,0-1.07,1.27c1.5-1.43-.39.47.81-.47l-.81.81c.29-.24.58-.46.85-.67h0c-.09,0-.12.05,0,0h0a.21.21,0,0,1,0-.11c.47-.38.1,0,0,.11v0h0c.51-.48.91-1.06,1.37-1.58C112.07,175.18,111.73,175.63,111,176.34Z"/><path class="cls-7" d="M102.33,182h.08S102.55,181.9,102.33,182Z"/><path class="cls-7" d="M103.11,181.67a2.72,2.72,0,0,1-.61.46c-.39.18,0-.07-.09-.11-.23.19-.81.64,0,.23l.11-.09a7.37,7.37,0,0,1,1.66-.66A3.52,3.52,0,0,0,103.11,181.67Z"/><path class="cls-7" d="M107.22,179.15a15.43,15.43,0,0,0,1.25-1.17l-.72.44.09,0C107.05,179.09,107.26,179,107.22,179.15Z"/><path class="cls-7" d="M114.35,172.92v.28q.23-.47.42-1Z"/><polygon class="cls-7" points="115.68 171.09 115.77 171.25 116.05 170.71 115.68 171.09"/><path class="cls-7" d="M55.7,104.92l-.38.29Z"/><path class="cls-7" d="M58.84,103.24v-.11C58.75,103.24,58.71,103.3,58.84,103.24Z"/><path class="cls-7" d="M118,118.77c-.26-.71-.5-1.56-.61-1.38v.29A6.88,6.88,0,0,1,118,118.77Z"/><path class="cls-7" d="M87.36,98.62l.2.09h.51C87.83,98.67,87.6,98.64,87.36,98.62Z"/><path class="cls-7" d="M86.72,99.27,85.8,99C86,99.08,86.29,99.16,86.72,99.27Z"/><path class="cls-7" d="M41.79,118.14q-.1.28-.18.57C42.11,118,41.83,118.26,41.79,118.14Z"/><path class="cls-7" d="M124.39,149.86a14.21,14.21,0,0,0,.35-1.57C124.52,149,124.28,149.64,124.39,149.86Z"/><path class="cls-7" d="M56,102.56c-.25.18-.34.28-.32.31C55.94,102.68,56.08,102.56,56,102.56Z"/><path class="cls-7" d="M124.86,146.43l-.08.37a9.71,9.71,0,0,1-.06,1.52A4.82,4.82,0,0,0,124.86,146.43Z"/><path class="cls-7" d="M53.49,180.18l.12.1A.33.33,0,0,0,53.49,180.18Z"/><path class="cls-7" d="M72.23,189.11c-.2,0-.54-.07-.86-.11A8.43,8.43,0,0,0,72.23,189.11Z"/><path class="cls-7" d="M118.84,165.12c0-.11,0-.19,0-.22A.41.41,0,0,1,118.84,165.12Z"/><path class="cls-7" d="M123.85,141.68v0C123.83,141.78,123.83,141.76,123.85,141.68Z"/><path class="cls-7" d="M120.08,164l.32-.54A5.77,5.77,0,0,0,120.08,164Z"/><path class="cls-7" d="M120.2,163.9l-.2.37C120,164.34,120,164.3,120.2,163.9Z"/><path class="cls-7" d="M120.73,162.73l-.36.69c0-.08.08-.11.07-.08Z"/><path class="cls-7" d="M33.82,149.15v.08C34,149.71,34,149.5,33.82,149.15Z"/><path class="cls-7" d="M108.8,110.49h0l0,0Z"/><path class="cls-7" d="M107.48,109.49a3.7,3.7,0,0,1,1.32,1l-.07-.75Z"/><path class="cls-7" d="M48.88,110l1-.65c-.87,1.13-1.62,1.73-.71,1.18-.07-.13.1-.39.39-.7a8.14,8.14,0,0,1,1.15-1c.89-.68,1.78-1.36,1.68-1.62l.68-.37c-.17.12-.18.17-.36.3,1.33-.68.66-1,2.35-1.93.59-.31,1-.48.67-.18l1.21-.9c.38-.21.34-.08,0,.14.65-.4,1.35-.7,2-1h0c.26-.22.87-.67,1.17-.87.56-.19-.23.18-.07.17.36-.21.71-.46,1.09-.66.27,0,.17.09-.1.25a8.55,8.55,0,0,1-1.07.59,1.74,1.74,0,0,0,1.22-.39,7.62,7.62,0,0,1,2.16-.81l-1.09.47a19.3,19.3,0,0,0,3-.67c-.31,0-2.66.46-1.43-.14a7.37,7.37,0,0,0,1.52-.59c.07.18.75,0,1.62-.28v.27a5.82,5.82,0,0,0,1.34-.68,2.22,2.22,0,0,1,1.62,0c1.72-.22-1.24-.14.82-.5a16.39,16.39,0,0,0,2-.28,19.62,19.62,0,0,1,2.16-.42c1,0-.16.17.2.22l.89-.25c.22,0,.15.06.12.09.75-.11,0-.26,1.24-.39a3,3,0,0,1,1.53,0,7.74,7.74,0,0,0,2.4.16c.35.08-.19.15-.09.26,2-.12,1.75-.12,3.43-.13l1.38.38c-1-.35.35-.38,1.56-.38-.35-.15-.66-.28-.86-.35a13.34,13.34,0,0,1,1.89.22c.21.1,0,.14-.32.17h.35c.64.26.26.32-.23.34l-.63-.33c-.49.09-1,.2-.88.36.2,0,.41,0,.62,0-.13,0-.22,0-.17.08a3.32,3.32,0,0,0,.58,0l.35.39.12-.09,2.31.81,1.31.1,1.24.33a21.32,21.32,0,0,1,3.34.88c-.72-.1-.28.26-.41.48-.59-.55-2-.65-3.37-1.2.7.29.5.34.31.32l2.48.65c-.13.16.45.31,1,.7-.29-.59,1.83.59,2.82.93,0,.14-.29.16-1.41-.42,1.1.9,1.88.31,2.91,1.29a1.29,1.29,0,0,0-.53-.27c.67.27,2.15,1.28,1.73,1.16l-.27-.16,1.57,1c.58.37,1.15.81,1.71,1.2a9.29,9.29,0,0,0,2.3,1.34,1.42,1.42,0,0,1-.61.13c1.17.49,2.32,1,3.52,1.62-.44,0,0,1.34-1.39.31A17.51,17.51,0,0,0,110.4,112c-.18-.28-.26-.91.08-.6a20.5,20.5,0,0,0,1.29,2.11c-.29-.41.43-.31,1,.29-.14,0-.31.35-.53.17l.81.57c.27.21.52.43.81.64-.36-.34-.35.18-.19.61-.06-.22,1,1.36,1.36,1.75l-.42-.73c1.3,1.8,1.79,1.44,3,3.36-.22-.19-.81-.27-.31.71a11.94,11.94,0,0,1,1.38,1,11.35,11.35,0,0,1,1.74,2.17l0,.39a11.87,11.87,0,0,1,.75,1.35c-.29-.4-1-1.09-1.62-1.85s-1.32-1.55-1.77-2.12a5.17,5.17,0,0,0,.52,1.39c.07.46-.46-.52-.62-.81l1.16,2.62c.1-.11.4.36.7.81s.5,1,.59.91a26.6,26.6,0,0,0-1.54-2.76c.1-.11.47.21.93.81a7,7,0,0,1,.7,1.09,11.93,11.93,0,0,1,.57,1.39c.08.53-.59-.2-.66-.12a9.31,9.31,0,0,1,.81,2l-.43-.77a6,6,0,0,0,.63,1.41,4.29,4.29,0,0,1,.44,1.62c.09.47,0,1.45.18,1.49.12-.81,1-1.21,1.37-.75l.17,1.4a8.24,8.24,0,0,1,0,1.72c-.12.81-.75-1.07-.85-.37.08,0,.23.43.29.6,0,.51-.26-.16-.06.9.3.14.31,2.19.31.48a8,8,0,0,1,.17,1.11c0,.3.06.63.08,1.25.16-.42.66,1.07.81,2.16-.07-.06-.15.19-.19.3l0,1.49c0,.46-.07.87-.1,1.28-.07.81-.15,1.63-.2,2.66-.07.18-.22,1.16-.3.73a5.92,5.92,0,0,1,0,1.19c-.43,1.17.17-1.39-.26-.51a12.67,12.67,0,0,1-.05,2.54c.28-.23.35-2.05.39-3,.34,0,.46,1.62.29,3.81-.07.87-.24,1-.28,1s-.08-.17-.09,0a11.08,11.08,0,0,0-.49,2.91,5.06,5.06,0,0,1-.66,2.43c-.57.93-.43-.1-.65.07a12.15,12.15,0,0,1,.6-1.62,12.43,12.43,0,0,0,.44-1.3l-.4,1.11a8.16,8.16,0,0,1,.4-1.84c-.32.81-1.56,5.2-2.82,7.35-.12.42-.38,1.15-.15.85l.31-.71c.48-.58-.42,1.43.09.57-.18.5-.35,1-.57,1.62-.12.29-.24.59-.38.9a6.4,6.4,0,0,1-.57.9l-.37.11a3.62,3.62,0,0,0,.81-1.16c-.22.6-1.47,1.79-1.55,2.54l.69-.81a12.66,12.66,0,0,1-1.77,3.3c.56-.35.17-.26,1-.87-.72.51,1.8-2.92.81-2a4.45,4.45,0,0,0,.86-1c.27-.38.56-.81,1-1.31-.09,0-.34.34.19-.66a.7.7,0,0,1,0-.25v0h0a2,2,0,0,1-.36.46c.07-.58.85-2.18,1-2.76.33-.59,0,.29.2,0a5.51,5.51,0,0,0,.22-.89c.2,0,.89-1.55.45,0l.49-1.33a11.7,11.7,0,0,0,1-2.5c.2-.64.22-1.7.22-1.1l.43-2.17h0a19,19,0,0,0,.52-3.35c.13-1.15.38-2.33.55-3.58a24.64,24.64,0,0,1,.09-2.72l.17-.24V142a5.28,5.28,0,0,0-.11-1.43,4.35,4.35,0,0,0,.13-1.19v-.81a5.79,5.79,0,0,0-.13-.89c-.21-1.23-.47-2.52-.56-3.35h-.21a30.19,30.19,0,0,0-1-3.6l-.15.13c-.38-1.16-.81-3-1.5-4.87a2.94,2.94,0,0,1,.34.91,10.12,10.12,0,0,0-.49-1.71c-.24-.55-.56-1.07-.81-1.62s-.6-1-.87-1.53-.48-1-.7-1.5a4.25,4.25,0,0,1-.65-1.08l.07.11-.11-.19-.3-.67a5.89,5.89,0,0,0,.24.58c-.21-.34-.55-.86-.9-1.34v-.33l-.08-.12c-.24-.54-.32-.35-.28,0a4.3,4.3,0,0,0-.55-.58c0-.56-1-1.19-1.14-1.91a12.34,12.34,0,0,1-1.15-1.25,3.83,3.83,0,0,0-1.32-1s-.08-.19.14,0a7.91,7.91,0,0,0-1.31-1.4v-.3l-.6-.42-.65-.37c-.55-.7-.76-1,0-.56-1.77-1.2-1.34-1.09-2.87-2l.17-.08a10.86,10.86,0,0,1-1.7-1.16c-.89-1.22-5.84-4-9.13-5.72.23.37-.13.12-.6-.15s-1.05-.54-1.19-.4c-.16-.17-.63-.41,0-.3-1.82-.52-2.6-1.2-4-1.19-.18-.16.43,0,.27-.17a2.06,2.06,0,0,1-.81-.17c-.17-.11.29,0,.6,0-1.89-.46-2.16-.18-2.37.11a5.5,5.5,0,0,0-1.12-.39,3.29,3.29,0,0,0-1,0c-.32-.16-.86-.35.32-.21-.66-.1-4.06-.81-4.14-.5a4.17,4.17,0,0,0-1.06-.06c-1.5-.09-1.62-.12-3.1-.17l.4.06a9.52,9.52,0,0,1-2.43.16h0a10.58,10.58,0,0,0-2,0h-1l-.81.06.17.17c-.19.46-2.38.11-3.91.52h.58a6.33,6.33,0,0,1-1.62.12,9.43,9.43,0,0,0-1.68,0c-.19,0,.27-.13.52-.23-2.26.34-.21.33-1.83.82-.34,0,.28-.47-.81-.15a12.53,12.53,0,0,0-1.88.81c-.43.2-.88.42-1.34.6-.22.09-.44.16-.66.24l-.59.21c.35,0,.7-.1,0,.3a18.7,18.7,0,0,1-2,.82,4.73,4.73,0,0,0-1.84,1c-.15,0-.21,0-.23,0a30.14,30.14,0,0,0-2.84,2.1c-1.08-.07-4.36,3.6-4.64,3.24l-2.12,2.06V110a7.62,7.62,0,0,0-1.33,1.45,9.37,9.37,0,0,0-.59,1c-.31.28-.15,0-.15,0a12.19,12.19,0,0,0-3,4.06l-.3.06a4.77,4.77,0,0,1-.53.72c-.27.32-.55.81-.9,1.26s-.71,1-1.06,1.62a8.54,8.54,0,0,0-.91,1.78.52.52,0,0,1,.05-.3,21.28,21.28,0,0,1-1,2.11,21,21,0,0,0-1.08,2.11c-.59,1.4-1.06,2.61-.88,3.25a15.2,15.2,0,0,0-.36,1.88c.67-2.36.22.44.58-.5-.19.94-.81,2.35-.57,1.19l.08-.17c-.25-.52-.92,2.92-1.1,2.81a52.18,52.18,0,0,0-.81,14.11c.07-.18.15-.37.24-.55,0,.53.13,1,.2,1.58s-.15.58-.3-.55a4.08,4.08,0,0,0,.49,1.88c.22,2.23-.47-.81-.38-.12l.17.91v-.21c.11.36.2.55.29.81s.08.29.13.49.14.46.22.82c.15.81-.07.47,0,.81a2.21,2.21,0,0,0,.12.51l.47,1.95v-.81c.32.81.48,1.82.48.86a19.26,19.26,0,0,0,1.24,4.15c.69,1.67,1.54,3.18,1.62,3.6a6.45,6.45,0,0,1,.49.81l.54.81c.35.55.7,1.13,1.09,1.78-.16-.34,0-.67.6.46-.34-.07-.13.51.31,1.15a9.9,9.9,0,0,1,1.18,2c-.18-.46.39.28.93,1s1.16,1.2.81.54c.7.81-.11.18.35.88.48.45,1,.94,1.43,1.47.24.26.47.54.73.81l.81.81A25.58,25.58,0,0,0,50,180.13c.08,0-.29-.43.33-.11l1.15,1.31a2.14,2.14,0,0,0,.65.25,2.68,2.68,0,0,1,.88.61c-.1-.14-.26-.34.12-.14a35.11,35.11,0,0,0,8.48,4.42c1.5.58,3,1.09,4.6,1.52.81.22,1.55.45,2.32.69s1.57.38,2.35.6c-.81-.27-.26-.19.4-.1-.43-.09,0-.17,0-.28.86.21,1.73.48,2.61.64.51-.24,2.88.13,3.16-.11h-.81c1.13-.25-1.53-.75-1.33-1.13a3.14,3.14,0,0,1-1.06,0,12.13,12.13,0,0,1-1.25-.32,8.2,8.2,0,0,0-2.91-.4c-.42-.15.4-.07.18-.19a4.51,4.51,0,0,1-2.23-.39h.14A20.28,20.28,0,0,1,64,185.72L62.29,185a17.67,17.67,0,0,1-2.12-1l.16.29a7,7,0,0,1-1.11-.68c-.93-.12,1.94,1,1.08.9a13.63,13.63,0,0,0-2.79-1.62,11.48,11.48,0,0,1-1.63-.94,3.08,3.08,0,0,1-.81-.76c-1-.61.18.38-.81-.24l-.2-.27h-.34c-.67-.42-.86-.81-.81-.91a7.19,7.19,0,0,0,.61.41c-.72-.72-2.3-1.62-2.55-1.91l.87.74c-.66-.47-1.37-.94-2-1.5l-2-1.79-1-.89-.89-.95c-.6-.63-1.18-1.22-1.76-1.76l.09.23a7.16,7.16,0,0,1-.55-.54l-.36-.46c-.2-.27-.33-.47-.48-.69a18.66,18.66,0,0,0-1.38-1.92l.08.06a6.53,6.53,0,0,1-1.16-1.56c.43.51-.48-1.19.07-.5a13.18,13.18,0,0,0-1.94-2.35l0-.43a6.8,6.8,0,0,1-1.07-1.62c.59.91-.16-.86.52.16a12.39,12.39,0,0,0-.7-1.68l-.57-1.3a4.56,4.56,0,0,1-.6-2c-.81-1.06.6,2.32.27,1.69.08.6-.65-.89-.91-1.72s.08-1.63-.5-3.73c0,.21.08.21.14.43a5.88,5.88,0,0,0-.32-1.2c-.07-.22-.13-.43-.19-.65a5.84,5.84,0,0,1,0-.73c-.33-.51-.19-1.3-.53-1.41l.38,2a18.64,18.64,0,0,1-.9-4.06,7.14,7.14,0,0,1,.37,1.07,12.36,12.36,0,0,1-.19-1.62c.28.14.43,2.44.81,3.63,0-.61-.58-2.27-.14-1.71a3.25,3.25,0,0,1-.42-1.56,7.93,7.93,0,0,0-.21-2.06l.19.09a9,9,0,0,1-.17-1.16l.28.81a15.57,15.57,0,0,1,0-3.48c-.07,1.21-.12,1.35-.19,1.31s-.18-.25-.23.26a4.83,4.83,0,0,1,.24-2.44,7.64,7.64,0,0,0,.41-2.64c0,.45-.21,1.69-.27,1a7.2,7.2,0,0,1,.16-1,5.44,5.44,0,0,1,.25-.81c.3-2.2-.24.31-.22-.64.35-.71.07-1.1.15-2.08h.19c.06-.31.11-.56.13-.75a4.42,4.42,0,0,0,.15-.48.81.81,0,0,0,0-.38c-.07-.15-.13-.28.22-1.37v1l.23-1.17.15.29c.06-.49.15-1,.26-1.47a6.66,6.66,0,0,1,.49-1.38c-.24.23-.28-.27.11-1.33.37-.69,0,.47.54-1a2.14,2.14,0,0,1-.41,1.38,1.85,1.85,0,0,1,0,.47,16.39,16.39,0,0,0,.94-2.44c-.08.2-.17.39-.26.57.09-.37.17-.75.27-1.13l.38-1.09c.23-.3.16,0,.08.27.19-.43.25-.77.53-1.39.07.23.23.27-.12,1.17l.81-2c.12-.11.67-.91.59-.64.72-1,1.25-2.7,2.25-4a3,3,0,0,1,.23-.52l1.41-1.71c.24-.29.46-.6.7-.92s.52-.63.81-1l.9-.56c.89-1.08-1.2.81.3-1,1.06-1.29.58-.29,1-.64a11.51,11.51,0,0,1,2.66-2.69C49.54,109.39,49.23,109.62,48.88,110Zm14.8-8.84a3.13,3.13,0,0,1-1.16.49C62.8,101.26,63.15,101.25,63.68,101.11Zm26.11-1.5a3,3,0,0,1-1-.3A6.19,6.19,0,0,1,89.79,99.61Zm32.56,58.8h0C122.67,157.66,122.54,157.91,122.35,158.41Zm-.64,1.49c0,.16,0,.16.05.11a2.76,2.76,0,0,1,.27-.81,1.92,1.92,0,0,0-.35.7Zm-88.25-5.56V154C33.66,154.69,33.57,154.52,33.46,154.34Z"/><path class="cls-7" d="M86.8,99.19a.2.2,0,0,1-.12-.13C86.54,99.08,86.53,99.11,86.8,99.19Z"/><path class="cls-7" d="M41.82,118v0a0,0,0,0,0,0,0Z"/><path class="cls-7" d="M122.45,135.52a2.29,2.29,0,0,1,0-.64S122.35,135,122.45,135.52Z"/><path class="cls-7" d="M118.16,167.75l.5-.92a5.3,5.3,0,0,1-.54.77S118.29,167.48,118.16,167.75Z"/><path class="cls-7" d="M111.81,174.14c-.08.12-.21.24-.29.36h.08C112,174.06,112.26,173.68,111.81,174.14Z"/><path class="cls-7" d="M117.11,168.23c-.2,0-.43.58-.86,1.17l.07-.11c0,.16.15.07.31-.14A9,9,0,0,0,117.11,168.23Z"/><path class="cls-7" d="M116.15,169.5l-.39.54C115.78,170.19,115.93,169.86,116.15,169.5Z"/><path class="cls-7" d="M121,161.86c-.19.29.09.28,0,.43C121,162.72,121.73,160.1,121,161.86Z"/><polygon class="cls-7" points="116.36 168.42 116.66 168.32 116.73 167.89 116.36 168.42"/><path class="cls-7" d="M119.28,163.61l-.55,1s0,.15-.07.32A8.24,8.24,0,0,0,119.28,163.61Z"/><path class="cls-7" d="M118.66,164.92c-.17.33-.37.62-.44.81A6.35,6.35,0,0,0,118.66,164.92Z"/><polygon class="cls-7" points="117.11 167.06 117.32 166.79 117.75 166.11 117.11 167.06"/><path class="cls-7" d="M123.28,152l.14-1.24c0-.14-.15.19-.19.66C123.23,151.73,123.16,152.19,123.28,152Z"/><path class="cls-7" d="M121.85,155.53a1.86,1.86,0,0,1,.29-.49l-.24-.09Z"/><path class="cls-7" d="M122.66,152c0-.14.07-1.8-.15-.26C122.58,151.9,122.4,153.13,122.66,152Z"/><polygon class="cls-7" points="122.78 133.51 122.86 133.82 123.25 133.69 122.78 133.51"/><path class="cls-7" d="M115.6,118.94c.66,1.28.39.15,1,1.33.26.24-.47-1-.22-.71C115.81,118.87,115.62,118.41,115.6,118.94Z"/><path class="cls-7" d="M116.35,119.56l.28.35A3.07,3.07,0,0,0,116.35,119.56Z"/><polygon class="cls-7" points="75.74 189.66 76.7 189.79 76.08 189.62 75.74 189.66"/><path class="cls-7" d="M77.6,189.44l.22.28.58-.21A2.68,2.68,0,0,1,77.6,189.44Z"/><path class="cls-7" d="M66.28,100.84l0-.08a2.21,2.21,0,0,0-.81.12Z"/><polygon class="cls-7" points="54.84 105.74 55.03 105.63 54.56 105.64 54.84 105.74"/><path class="cls-7" d="M46.93,112.52a9.66,9.66,0,0,1,1-1C47.17,112.18,46.62,112.41,46.93,112.52Z"/><path class="cls-7" d="M80.59,143.25h0Z"/><polygon class="cls-7" points="80.97 143.41 80.89 143.39 81.06 143.45 80.97 143.41"/><path class="cls-7" d="M80.93,143.55c.28.07,0-.06.08-.06h.06l-.23-.06S81,143.55,80.93,143.55Z"/><path class="cls-7" d="M80.33,143.38Z"/><path class="cls-7" d="M80.38,143.42l-.09,0-.12-.06A1,1,0,0,0,80.38,143.42Z"/><path class="cls-7" d="M80.46,143.45l.07.05h0Z"/><path class="cls-7" d="M80.5,143.46l.18.08S80.46,143.43,80.5,143.46Z"/><path class="cls-7" d="M81.21,143.64h.09l-.09,0C81.26,143.62,81.13,143.62,81.21,143.64Z"/><path class="cls-7" d="M80.23,143.39l.21.13-.06,0Z"/><path class="cls-7" d="M80.44,143.55l.08.07S80.5,143.55,80.44,143.55Z"/><path class="cls-7" d="M80.85,143.67l-.18-.12C80.73,143.55,80.79,143.63,80.85,143.67Z"/><polygon class="cls-7" points="80.2 143.41 80.1 143.32 80.27 143.46 80.2 143.41"/><path class="cls-7" d="M80.22,143.44l-.21-.18.15.15S80.18,143.37,80.22,143.44Z"/><path class="cls-7" d="M80.26,143.5l-.1-.09Z"/><path class="cls-7" d="M80.48,143.55l-.15-.09.14.1Z"/><path class="cls-7" d="M80.69,143.64a1.32,1.32,0,0,0,.29.19C80.89,143.76,80.81,143.73,80.69,143.64Z"/><path class="cls-7" d="M80.67,143.71h0l-.13-.09Z"/><polygon class="cls-7" points="80.71 143.75 80.67 143.71 80.65 143.7 80.71 143.75"/><path class="cls-7" d="M80.39,143.59c.06.06.06.07.06.08s0,0,0,0Z"/><path class="cls-7" d="M80.45,143.61Z"/><polygon class="cls-7" points="80.39 143.73 80.42 143.75 80.39 143.73 80.39 143.73"/><path class="cls-7" d="M80.53,143.71v-.05h0Z"/><path class="cls-7" d="M80.31,143.55l.07.07Z"/><path class="cls-7" d="M80.41,143.55l.09.07h0Z"/><path class="cls-7" d="M81.06,144.62c-.1-.13-.17-.27,0-.16a7,7,0,0,0-.62-.71,1.27,1.27,0,0,1,.13.19,1.36,1.36,0,0,1,.24.24c0,.1,0,0-.12-.07.14.15.14.26.32.49v-.11S81,144.6,81.06,144.62Z"/><path class="cls-7" d="M80.45,143.74h0a.77.77,0,0,1-.16-.15l.11.16h0Z"/><path class="cls-7" d="M80.46,143.71a2.91,2.91,0,0,0,.3.31l-.14-.18a.38.38,0,0,0-.15-.12v-.05l-.06,0h0l0,.05,0-.05h0l0,.09Z"/><path class="cls-7" d="M81.29,144.05Z"/><path class="cls-7" d="M81.19,144s-.08,0,0,0l.12.07a.42.42,0,0,0-.18-.11h0a1.43,1.43,0,0,1-.28-.13C81,143.88,81.05,144,81.19,144Z"/><path class="cls-7" d="M80.84,143.92V144l.13.08-.08-.06C81,144,80.89,144,80.84,143.92Z"/><polygon class="cls-7" points="80.33 143.66 80.22 143.52 80.37 143.73 80.33 143.66"/><polygon class="cls-7" points="80.33 143.7 80.23 143.57 80.28 143.65 80.33 143.7"/><path class="cls-7" d="M77.8,141.93v0Z"/><path class="cls-7" d="M77.69,142.12h0Z"/><path class="cls-7" d="M79.69,143.74c.07-.13.2-.33.09-.18l-.09.15S79.71,143.71,79.69,143.74Z"/><path class="cls-7" d="M78.4,143.55h0Z"/><path class="cls-7" d="M77.67,143.68l.11-.06Z"/><path class="cls-7" d="M78.44,141l-.07-.17C78.32,140.85,78.4,140.92,78.44,141Z"/><path class="cls-7" d="M80.08,143.86a.17.17,0,0,0,0-.1A.84.84,0,1,1,80.08,143.86Z"/><path class="cls-7" d="M79.37,142.92l-.09-.06Z"/><path class="cls-7" d="M80,143.76v0Z"/><path class="cls-7" d="M82.14,141.8Z"/><path class="cls-7" d="M80.8,143.14Z"/><path class="cls-7" d="M80.55,144.28v0Z"/><path class="cls-7" d="M80.24,143.75v0Z"/><path class="cls-7" d="M80.18,143.67Z"/><path class="cls-7" d="M80.27,141.12Z"/><polygon class="cls-7" points="78.23 144.88 78.24 144.87 78.24 144.87 78.23 144.88"/><path class="cls-7" d="M78.07,144.9c.2-.12.19-.08.17,0l.36-.37Z"/><path class="cls-7" d="M78.05,141.52l-.17-.05c-.14-.24,0-.23-.24-.33.41.38-.15.28.29.62H77.8c-.26-.08.3.28.18.32a.2.2,0,0,1-.18-.07l.08.14s-.11,0-.08-.05v.13h0l.21.19c-.08,0,0,0-.11-.06l.1.11c-.15,0-.25-.13-.21-.17-.54-.16.09.1-.25.12v-.09c-.31-.07-.23,0-.45,0,.11,0,.53,0,.62.13s-.07,0,0,.09c-.18,0-.14,0-.15.05l-.24-.06c.05.07.18.1.29.16s-.24,0-.41,0,.33,0,.35.12,0,.15.13.24c-.09,0-.15,0-.23,0l.21.07h-.11s.26,0,.33.08c.28,0-.42.12-.08.19a1.13,1.13,0,0,1-.26,0,.87.87,0,0,0,.45.13l-.16.1a1.8,1.8,0,0,1,.61-.05l.21-.07h.15l-.24,0h0a1,1,0,0,1-.38.07l.15,0-.49,0h.08l-.29.08h.12a1.15,1.15,0,0,0-.14.17,4.13,4.13,0,0,1,.87,0c-.18.06-.37.14-.55.22.24-.13-.13,0-.11-.14a1.12,1.12,0,0,1-.18.08h.28c-.2.07-.13.08-.2.15.36-.18.29,0,.42,0-.12.07-.25.12-.25.05-.23.2.46-.14.27,0H78.1c.13,0,.08.09,0,.14h0c0,.12.17.27.44.05l-.38.3a8,8,0,0,0,1-.67,6.63,6.63,0,0,1-.87.81s0,.11.08.07a1.93,1.93,0,0,1,.31-.33,1.5,1.5,0,0,0-.23.41,2.1,2.1,0,0,1,.36-.37s-.29.36-.33.39a2.6,2.6,0,0,0,.36-.3,2,2,0,0,0-.3.42c0-.08.06.06.11,0v-.11c.06.12.45-.47.51-.41s-.34.49-.31.57c.14-.19.63-.94.74-1.09l0,.12.09-.12a4.94,4.94,0,0,1-.76,1.16c0,.11-.06.15,0,.17a.18.18,0,0,1-.14.15l.13.14c.1-.24.22-.19.3-.41l-.27.19c.12-.25.41-.65.46-.59s-.14.36-.22.54c.05-.09.16-.14.15-.08l-.09.12c0,.13.19-.3.19,0v.21a14.27,14.27,0,0,1,.34-1.47v.46c0,.24-.15.56-.17.77a1.34,1.34,0,0,1,.07-.18c0,.06,0,.22,0,.2,0-.28.09,0,0-.23.06-.07,0,.07.11.06a3.14,3.14,0,0,1,.13-.68v.2c.07,0,.12.15.2.15a.58.58,0,0,1,.06.26v-.15c.09.23-.06,0,0,.32a1,1,0,0,1,.06-.34c0-.24-.09,0-.11.08a4.22,4.22,0,0,1,0-.87c0-.09.07.21.06.16s-.09-.58,0-.36.14.4.2.55-.11-.11-.13-.1l.06.09c0,.07,0,.14,0,.08.09.19.18,0,.34.11a.58.58,0,0,0-.08-.22h0c-.09-.15-.06-.24-.12-.3s-.09-.3,0-.24l.13.21c0-.06-.1-.11-.06,0,0-.1.22.26.07,0l-.11-.13c0-.12-.17-.35-.12-.3a2.33,2.33,0,0,0-.16-.2c.21.29,0,0,.17.32-.18-.28-.09-.11-.24-.35,0,.07.08.13,0,.1v.07h0l.06.1a.68.68,0,0,1,.07.28.25.25,0,0,0-.07-.16v.13a2,2,0,0,1-.15-.37h0c0-.09-.06-.13,0-.05s0,.2,0,.06v.07s0,.31-.09,0v-.1h0v0l-.07.11,0,.17c-.07.15,0-.14,0-.13h0c.13-.39-.19.24-.09,0h0l0-.09,0,.09-.06,0,.11-.17h0c0-.06-.06.07-.14.2l-.07.09c.17-.26-.09.06.1-.22-.1.13-.11.08-.35.33,0,0,0-.06,0-.05s0-.08,0,0l.17-.19-.26.21a2.13,2.13,0,0,1,.3-.3,3,3,0,0,1-.35.22l.13-.1s-.2.1-.09,0-.06-.17.17-.35c-.43.19.18-.11-.16,0l.25-.1c-.11,0,.16-.09-.14,0l.22-.06h.14c-.23,0-.45.08-.68.13.15-.05.12-.05-.09,0a1,1,0,0,1,.25,0s.15-.09-.11-.07h0s0,0,0-.07h0c-.32,0-.07,0-.1-.06h0c.23,0-.11,0,.16-.08h-.2c-.41-.06.25,0,.1-.09h-.11c-.13-.06.57.07.62.08h.08c.25,0-.24-.06-.3-.11l.37.1c.1,0-.41-.19-.16-.12a1.45,1.45,0,0,1-.26-.11c0-.05.38.12.1-.05l.07,0a1.75,1.75,0,0,0-.24-.23c.56.38-.18-.31.31.08v-.06l0,0s0-.1-.14-.22a.28.28,0,0,1,.09.1c.12.05.1,0,0-.24l.12.16c0-.11.23.23.15,0v.08c0-.24.29.48.07-.22a.54.54,0,0,1,0-.18c-.07,0-.07-.31-.14-.42s.13.19.11.24h0c.08.37.1.11.15.37.11,0,.2.17.27.19v-.3h0v.22c0,.16,0-.14.06-.2a1.07,1.07,0,0,1-.06.35h0c0-.12,0-.25.08-.23v.2h0l0-.23a2.25,2.25,0,0,0,.09-.24c-.09.4.1.2.07.32.11-.14.13-.11.15-.08s.15-.28.17-.23c-.31.45-.09.24-.3.56.14-.22.09,0,.3-.31,0,.05-.13.16-.2.26.18-.12,0,.17.06.16s.14-.12.23-.17l-.27.23s.35-.23.15-.06l.15-.1c-.12.15,0,.16,0,.21s.07.14-.25.24c.14,0,.16,0,.17,0l.26,0-.26.09c.27,0,0,.05.28.05h-.05a7.47,7.47,0,0,0,1.06-.11c-.34,0,.48-.22,0-.25h.21c-.17,0-.21,0-.15-.08h0c-.08-.14.06-.25.08-.48l-.17.09s.06-.08.09-.12c-.28.09,0,.11-.28.2.34-.21-.1-.22.26-.48,0-.06-.18.13-.22.08l.09-.08-.13.07c0-.05.11-.15.19-.21s0,0,.06,0-.14-.11-.12-.15V142c-.19-.07-.24-.34-.52-.26l0,.08c-.2.05,0-.14-.17-.17h0c-.08.07-.12.09-.15.06s.06-.21.16-.28c-.22.08-.14.08-.37.34l.05-.15c-.08.12-.12.17-.19.19.1-.1.07-.23.19-.36,0-.36-.31.24-.2-.24-.2.37,0,.26,0,.33s-.15.28-.17.23.09-.54,0-.55h0s-.12.11-.13-.06c-.08.24-.08,0-.13.28l.1-.05c-.07.07-.17.43-.23.25a1.67,1.67,0,0,1,.08-.2c0-.09-.06.06-.08,0,0-.32.13-.05.24-.28s-.16.21-.08-.13c-.11.43-.12-.07-.23.26v-.2s0,.13-.06.12l0-.25c-.08.22-.13-.19-.21-.07.15,0,0,.23.09.37-.14.26-.1-.51-.31-.39,0,0,.12.1.09.19a.39.39,0,0,1-.13-.2c-.13.06,0,.19,0,.32-.08-.22,0,.1-.08.18l0-.18c-.16-.1,0,.4-.1.28V141c0,.17-.06.13-.15.1.06.12.11.34.06.37s0-.19-.12-.13c0-.13,0-.27,0-.12l0-.18c-.09-.11-.13,0-.15,0a0,0,0,0,1,0,0v.3a.45.45,0,0,1-.07-.18v.15a.77.77,0,0,1-.11-.39l0,.22c0-.06-.14-.14-.16-.19s0,.35-.15.3a.07.07,0,0,1,0,.09c-.09,0-.28-.08-.22.16l-.23-.16c0,.1.3.21.27.37s-.19-.15-.27-.18c.06.14.23.39,0,.31C78,141.55,78.05,141.56,78.05,141.52Zm-.39.91s-.14-.11,0-.09S77.75,142.42,77.66,142.43Zm.39,1.32c-.06,0,0,0,0-.05S78.1,143.72,78.05,143.75Zm2.15.1h0s0,0,0,0Zm0,.07v0s0,.08,0,0Zm-.06-1.45v-.05a.12.12,0,1,1,0,.05Z"/><path class="cls-7" d="M77.75,143.67h0Z"/><polygon class="cls-7" points="78.46 141.02 78.46 141.02 78.44 140.99 78.46 141.02"/><path class="cls-7" d="M79.58,145.6a.21.21,0,0,1,0-.11S79.56,145.58,79.58,145.6Z"/><path class="cls-7" d="M80.18,143.55v0l0,.05Z"/><path class="cls-7" d="M81.08,144.43h0l-.09-.07A.45.45,0,0,0,81.08,144.43Z"/><path class="cls-7" d="M80.56,144.13c.09.13.07.08.07,0h0C80.5,144,80.53,144.05,80.56,144.13Z"/><path class="cls-7" d="M80.63,144.16Z"/><path class="cls-7" d="M80.24,143.81s-.08-.19,0-.13C80.11,143.49,80.26,143.92,80.24,143.81Z"/><polygon class="cls-7" points="80.87 144.57 80.75 144.4 80.83 144.55 80.87 144.57"/><path class="cls-7" d="M80.63,144.53h.06v-.06S80.6,144.48,80.63,144.53Z"/><polygon class="cls-7" points="80.85 144.65 80.82 144.62 80.79 144.62 80.85 144.65"/><path class="cls-7" d="M80.26,144.62v.14A.33.33,0,0,0,80.26,144.62Z"/><path class="cls-7" d="M80.52,145.13l-.06-.14.06.24Z"/><path class="cls-7" d="M80.38,145.22c0,.07,0,.21,0,.19A.12.12,0,0,0,80.38,145.22Z"/><polygon class="cls-7" points="79.63 144.9 79.64 144.9 79.72 144.5 79.63 144.9"/><path class="cls-7" d="M78.56,145.49c0,.13.15-.2.15-.06.07-.07,0-.12.06-.18C78.65,145.32,78.65,145.25,78.56,145.49Z"/><path class="cls-7" d="M78.74,145.25h0Z"/><polygon class="cls-7" points="80.58 143.21 80.5 143.23 80.63 143.21 80.58 143.21"/><path class="cls-7" d="M80.89,143.23Z"/><path class="cls-7" d="M77.11,142.42h0Z"/><polygon class="cls-7" points="77.62 141.75 77.6 141.76 77.82 141.87 77.62 141.75"/><path class="cls-7" d="M77.82,141v.09S78,141.22,77.82,141Z"/></g></g></g></svg>